<?xml version="1.0" encoding="utf-8"?>
<!-- Generator: Adobe Illustrator 27.9.0, SVG Export Plug-In . SVG Version: 6.00 Build 0)  -->
<svg version="1.1" xmlns="http://www.w3.org/2000/svg" xmlns:xlink="http://www.w3.org/1999/xlink" x="0px" y="0px"
	 viewBox="0 0 512 512" style="enable-background:new 0 0 512 512;" xml:space="preserve">
<style type="text/css">
	.st0{fill:#1B679B;}
	.st1{fill:#CC3333;}
</style>
<g id="Hold_00000090264490521409809470000008448939214108324010_">
	<ellipse id="Brand" transform="matrix(0.9603 -0.2791 0.2791 0.9603 -63.01 81.4407)" cx="254.5" cy="262" rx="260.4" ry="125.8"/>
	
		<ellipse id="My_00000013174247200037101700000006678124082826773120_" transform="matrix(0.9603 -0.2791 0.2791 0.9603 -60.9371 81.9998)" class="st0" cx="257.5" cy="255" rx="260.4" ry="125.8"/>
</g>
<g id="Darling_00000034795786595078512940000016918704247822006952_">
	<g id="Northern_II_Holidays_00000072274165598648386740000011526516070731937424_">
		<g>
			<g>
				<path d="M13.1,282.6l10.1-2.6h2.2l10.7,2.6l-1.4,8.1h-23L13.1,282.6z M39.3,176.6l3.8,8.1L24.7,290.7h-5.2L39.3,176.6z
					 M35.8,182.3l4.7,4.5l-10.1-2.1l1.4-8.1H49l19.5,91.3l-4.1,23.5h-5.4L35.8,182.3z M79.1,176.6h5.2L64.4,291.5l-3.5-9.9
					L79.1,176.6z M69.1,176.6h23l-1.4,8.1l-9.7,2.6h-2.2l-11.2-2.6L69.1,176.6z"/>
				<path d="M86,249.5c4.8-27.5,17.8-43.6,29.6-43.6c11.7,0,19.3,15.9,14.5,43.6s-17.3,43.6-29.6,43.6C88,293.1,81.2,277,86,249.5z
					 M118.1,249.7c4.1-23.7,2.5-35.4-4-35.4c-6.6,0-12.2,11.7-16.3,35.4c-4.1,23.8-2.6,35,4.1,35C108.4,284.8,114,273.5,118.1,249.7
					z"/>
				<path d="M130.7,283.7l10-3.4h5.8l8.8,3.4l-1.2,7h-24.6L130.7,283.7z M141.8,254.6l1.6-9.1c1.6-9.5,2.3-13.8,3.3-20.7l-6.2-1.5
					l1.1-6.4l17.2-10.9l1.2,1.8l-2.7,21.3l-4.4,25.6c-1.8,10.7-4.8,28.4-6,36.1h-11.6C136.8,283,139.9,265.3,141.8,254.6z
					 M151.5,231.6h6l-2.3,3c5.5-18.6,13.2-28.7,18.6-28.7c3.3,0,5.7,3.3,5.6,9.3c-1.6,8.5-4.6,13.3-8.2,13.3c-2.4,0-4-2.1-5.2-6.1
					l-1.7-5.3l4,0.4c-5.3,5-10.2,13.8-13.8,25.6l-5-0.6L151.5,231.6z"/>
				<path d="M191.9,281.8c1.8,0,3.7-1.4,6.3-4.3l1.4,4.4c-3.6,7.1-8.3,11.3-14,11.3c-7.3,0-10.6-6.6-7.9-21.7
					c0.9-5.1,1.7-9.2,2.8-15.9l6.4-36.8h-6.8l1.5-8.8l11.5-2.7l-5.6,6.3l9.3-28.9h7.3l-5.8,30.5l-9.4,54.4
					C187.7,278,189,281.8,191.9,281.8z M210.9,208.4l-1.8,10.4h-16.5l1.8-10.4H210.9z"/>
				<path d="M224.4,283.7l-1.2,7h-22.6l1.2-7l9.8-3.4h4.4L224.4,283.7z M225.8,180.8l-6.3-1.7l1.2-6.6l17.7-7.7l1.1,1.6l-4.6,24.2
					l-6.1,35.2l-0.1,2.2l-4.6,26.7c-1.8,10.7-4.8,28.4-6,36.1h-11.6c1.5-7.7,4.7-25.5,6.5-36.1L225.8,180.8z M255,236.6l-3.1,18
					c-1.9,11-4.8,28.4-6,36.1h-11.6c1.5-7.7,4.6-25.1,6.5-36.1l2.8-16.3c2.3-13.5,1.4-18-3.1-18c-4,0-8.5,4.2-14.5,12.9h-2.6
					l1.7-10.1h5.3l-4.5,4c7.8-14.2,15.3-21.2,21.8-21.2C255.7,206,258.7,215.4,255,236.6z M244,280.2l8.4,3.4l-1.2,7h-22.6l1.2-7
					l9.7-3.4H244z"/>
				<path d="M305.9,240.6c-0.7,3.8-1.4,6.9-2.2,9.4h-34.8l1.4-8.2h19.4c4.4,0,6.1-3.5,7.2-9.8c1.8-10.6-0.5-17.8-5-17.8
					c-4.8,0-11.4,8.5-15.7,33.2c-3.7,21.4,0.1,32,8.1,32c5.4,0,9.7-4.4,13.8-10.7l1.9,4.4c-5.8,12.8-13.2,20-21.8,20
					c-12.8,0-18.7-16.2-14-43.1c4.8-27.5,18.3-44,29.9-44C304.7,206,309.5,219.8,305.9,240.6z"/>
				<path d="M305.1,283.7l10-3.4h5.8l8.8,3.4l-1.2,7h-24.6L305.1,283.7z M316.2,254.6l1.6-9.1c1.6-9.5,2.3-13.8,3.3-20.7l-6.2-1.5
					l1.1-6.4l17.2-10.9l1.2,1.8l-2.7,21.3l-4.4,25.6c-1.8,10.7-4.8,28.4-6,36.1h-11.6C311.1,283,314.3,265.3,316.2,254.6z
					 M325.9,231.6h6l-2.3,3c5.5-18.6,13.2-28.7,18.6-28.7c3.3,0,5.7,3.3,5.6,9.3c-1.6,8.5-4.6,13.3-8.2,13.3c-2.4,0-4-2.1-5.2-6.1
					l-1.7-5.3l4,0.4c-5.3,5-10.2,13.8-13.8,25.6l-5-0.6L325.9,231.6z"/>
				<path d="M368.1,283.7l-1.2,7h-22.6l1.2-7l9.8-3.4h4.4L368.1,283.7z M350.1,290.7c1.5-7.7,4.7-25.5,6.5-36.1l1.6-9
					c1.6-9.5,2.3-13.9,3.3-20.8l-6.2-1.5l1.1-6.4l17.2-10.9l1.2,1.8l-2.4,19.5l-4.7,27.4c-1.8,10.7-4.8,28.4-6,36.1H350.1z
					 M398.4,236.6l-3.1,18c-1.9,11-4.8,28.4-6,36.1h-11.6c1.5-7.7,4.6-25.1,6.5-36.1l2.8-16.3c2.3-13.5,1.3-18-3.2-18
					c-3.9,0-8.7,4-14.5,12.2h-2.5l1.6-9.4h5.4l-4.4,4c7.8-14.2,15.3-21.2,21.8-21.2C399.2,206,402.1,215.4,398.4,236.6z
					 M387.5,280.2l8.4,3.4l-1.2,7h-22.6l1.2-7l9.7-3.4H387.5z"/>
				<path d="M437.8,280.1l12.3,2.6l-1.4,8.1h-27.6l1.4-8.1l13-2.6H437.8z M439.4,229.9c3.1-17.7,6.2-35.6,9-53.3h12.4
					c-3.3,17.4-6.4,35.3-9.5,53.3l-1.3,7.4c-3.1,17.8-6.2,35.7-9,53.4h-12.4c3.3-17.4,6.4-35.3,9.5-53.3L439.4,229.9z M439.5,184.7
					l1.4-8.1h27.6l-1.4,8.1l-13.2,2.6h-2.3L439.5,184.7z"/>
				<path d="M472.4,280.1l12.3,2.6l-1.4,8.1h-27.6l1.4-8.1l13-2.6H472.4z M474.1,229.9c3.1-17.7,6.2-35.6,9-53.3h12.4
					c-3.3,17.4-6.4,35.3-9.5,53.3l-1.3,7.4c-3.1,17.8-6.2,35.7-9,53.4h-12.4c3.3-17.4,6.4-35.3,9.5-53.3L474.1,229.9z M474.1,184.7
					l1.4-8.1h27.6l-1.4,8.1l-13.2,2.6h-2.3L474.1,184.7z"/>
			</g>
		</g>
		<g>
			<g>
				<path class="st1" d="M17.1,277.6l10.1-2.6h2.2l10.7,2.6l-1.4,8.1h-23L17.1,277.6z M43.3,171.6l3.8,8.1L28.7,285.7h-5.2
					L43.3,171.6z M39.8,177.3l4.7,4.5l-10.1-2.1l1.4-8.1H53l19.5,91.3l-4.1,23.5h-5.4L39.8,177.3z M83.1,171.6h5.2L68.4,286.5
					l-3.5-9.9L83.1,171.6z M73.1,171.6h23l-1.4,8.1l-9.7,2.6h-2.2l-11.2-2.6L73.1,171.6z"/>
				<path class="st1" d="M90,244.5c4.8-27.5,17.8-43.6,29.6-43.6c11.7,0,19.3,15.9,14.5,43.6s-17.3,43.6-29.6,43.6
					C92,288.1,85.2,272,90,244.5z M122.1,244.7c4.1-23.7,2.5-35.4-4-35.4c-6.6,0-12.2,11.7-16.3,35.4c-4.1,23.8-2.6,35,4.1,35
					C112.4,279.8,118,268.5,122.1,244.7z"/>
				<path class="st1" d="M134.7,278.7l10-3.4h5.8l8.8,3.4l-1.2,7h-24.6L134.7,278.7z M145.8,249.6l1.6-9.1
					c1.6-9.5,2.3-13.8,3.3-20.7l-6.2-1.5l1.1-6.4l17.2-10.9l1.2,1.8l-2.7,21.3l-4.4,25.6c-1.8,10.7-4.8,28.4-6,36.1h-11.6
					C140.8,278,143.9,260.3,145.8,249.6z M155.5,226.6h6l-2.3,3c5.5-18.6,13.2-28.7,18.6-28.7c3.3,0,5.7,3.3,5.6,9.3
					c-1.6,8.5-4.6,13.3-8.2,13.3c-2.4,0-4-2.1-5.2-6.1l-1.7-5.3l4,0.4c-5.3,5-10.2,13.8-13.8,25.6l-5-0.6L155.5,226.6z"/>
				<path class="st1" d="M195.9,276.8c1.8,0,3.7-1.4,6.3-4.3l1.4,4.4c-3.6,7.1-8.3,11.3-14,11.3c-7.3,0-10.6-6.6-7.9-21.7
					c0.9-5.1,1.7-9.2,2.8-15.9l6.4-36.8h-6.8l1.5-8.8l11.5-2.7l-5.6,6.3l9.3-28.9h7.3l-5.8,30.5l-9.4,54.4
					C191.7,273,193,276.8,195.9,276.8z M214.9,203.4l-1.8,10.4h-16.5l1.8-10.4H214.9z"/>
				<path class="st1" d="M228.4,278.7l-1.2,7h-22.6l1.2-7l9.8-3.4h4.4L228.4,278.7z M229.8,175.8l-6.3-1.7l1.2-6.6l17.7-7.7l1.1,1.6
					l-4.6,24.2l-6.1,35.2l-0.1,2.2l-4.6,26.7c-1.8,10.7-4.8,28.4-6,36.1h-11.6c1.5-7.7,4.7-25.5,6.5-36.1L229.8,175.8z M259,231.6
					l-3.1,18c-1.9,11-4.8,28.4-6,36.1h-11.6c1.5-7.7,4.6-25.1,6.5-36.1l2.8-16.3c2.3-13.5,1.4-18-3.1-18c-4,0-8.5,4.2-14.5,12.9
					h-2.6l1.7-10.1h5.3l-4.5,4c7.8-14.2,15.3-21.2,21.8-21.2C259.7,201,262.7,210.4,259,231.6z M248,275.2l8.4,3.4l-1.2,7h-22.6
					l1.2-7l9.7-3.4H248z"/>
				<path class="st1" d="M309.9,235.6c-0.7,3.8-1.4,6.9-2.2,9.4h-34.8l1.4-8.2h19.4c4.4,0,6.1-3.5,7.2-9.8c1.8-10.6-0.5-17.8-5-17.8
					c-4.8,0-11.4,8.5-15.7,33.2c-3.7,21.4,0.1,32,8.1,32c5.4,0,9.7-4.4,13.8-10.7l1.9,4.4c-5.8,12.8-13.2,20-21.8,20
					c-12.8,0-18.7-16.2-14-43.1c4.8-27.5,18.3-44,29.9-44C308.7,201,313.5,214.8,309.9,235.6z"/>
				<path class="st1" d="M309.1,278.7l10-3.4h5.8l8.8,3.4l-1.2,7h-24.6L309.1,278.7z M320.2,249.6l1.6-9.1
					c1.6-9.5,2.3-13.8,3.3-20.7l-6.2-1.5l1.1-6.4l17.2-10.9l1.2,1.8l-2.7,21.3l-4.4,25.6c-1.8,10.7-4.8,28.4-6,36.1h-11.6
					C315.1,278,318.3,260.3,320.2,249.6z M329.9,226.6h6l-2.3,3c5.5-18.6,13.2-28.7,18.6-28.7c3.3,0,5.7,3.3,5.6,9.3
					c-1.6,8.5-4.6,13.3-8.2,13.3c-2.4,0-4-2.1-5.2-6.1l-1.7-5.3l4,0.4c-5.3,5-10.2,13.8-13.8,25.6l-5-0.6L329.9,226.6z"/>
				<path class="st1" d="M372.1,278.7l-1.2,7h-22.6l1.2-7l9.8-3.4h4.4L372.1,278.7z M354.1,285.7c1.5-7.7,4.7-25.5,6.5-36.1l1.6-9
					c1.6-9.5,2.3-13.9,3.3-20.8l-6.2-1.5l1.1-6.4l17.2-10.9l1.2,1.8l-2.4,19.5l-4.7,27.4c-1.8,10.7-4.8,28.4-6,36.1H354.1z
					 M402.4,231.6l-3.1,18c-1.9,11-4.8,28.4-6,36.1h-11.6c1.5-7.7,4.6-25.1,6.5-36.1l2.8-16.3c2.3-13.5,1.3-18-3.2-18
					c-3.9,0-8.7,4-14.5,12.2h-2.5l1.6-9.4h5.4l-4.4,4c7.8-14.2,15.3-21.2,21.8-21.2C403.2,201,406.1,210.4,402.4,231.6z
					 M391.5,275.2l8.4,3.4l-1.2,7h-22.6l1.2-7l9.7-3.4H391.5z"/>
				<path class="st1" d="M441.8,275.1l12.3,2.6l-1.4,8.1h-27.6l1.4-8.1l13-2.6H441.8z M443.4,224.9c3.1-17.7,6.2-35.6,9-53.3h12.4
					c-3.3,17.4-6.4,35.3-9.5,53.3l-1.3,7.4c-3.1,17.8-6.2,35.7-9,53.4h-12.4c3.3-17.4,6.4-35.3,9.5-53.3L443.4,224.9z M443.5,179.7
					l1.4-8.1h27.6l-1.4,8.1l-13.2,2.6h-2.3L443.5,179.7z"/>
				<path class="st1" d="M476.4,275.1l12.3,2.6l-1.4,8.1h-27.6l1.4-8.1l13-2.6H476.4z M478.1,224.9c3.1-17.7,6.2-35.6,9-53.3h12.4
					c-3.3,17.4-6.4,35.3-9.5,53.3l-1.3,7.4c-3.1,17.8-6.2,35.7-9,53.4h-12.4c3.3-17.4,6.4-35.3,9.5-53.3L478.1,224.9z M478.1,179.7
					l1.4-8.1h27.6l-1.4,8.1l-13.2,2.6h-2.3L478.1,179.7z"/>
			</g>
		</g>
		<g>
			<g>
				<path d="M76.2,371.5l6.9,1.5l-0.8,4.6H66.9l0.8-4.6l7.2-1.5H76.2z M77.3,343.2c1.7-10,3.5-20.1,5.1-30.2h7
					c-1.9,9.8-3.6,19.9-5.4,30.2l-0.5,3c-2,11.3-3.7,21.4-5.3,31.4h-7c1.9-9.8,3.6-19.9,5.4-30.2L77.3,343.2z M77.3,317.6l0.8-4.6
					h15.4l-0.8,4.6l-7.4,1.5h-1.3L77.3,317.6z M80,347l0.9-5.1h20.7l-0.9,5.1H80z M97.1,371.5l6.8,1.5l-0.8,4.6H87.7l0.8-4.6
					l7.3-1.5H97.1z M98,343.2c1.7-10,3.5-20.1,5.1-30.2h7c-1.9,9.8-3.6,19.9-5.4,30.2l-0.7,4.2c-1.7,10-3.5,20.1-5.1,30.2h-7
					c1.9-9.8,3.6-19.9,5.6-31.4L98,343.2z M98.1,317.6l0.8-4.6h15.4l-0.8,4.6l-7.3,1.5h-1.2L98.1,317.6z"/>
				<path d="M111.1,354.3c2.7-15.5,10.1-24.7,16.8-24.7c6.6,0,10.9,9,8.2,24.7c-2.7,15.7-9.8,24.7-16.8,24.7
					C112.3,378.9,108.4,369.8,111.1,354.3z M129.3,354.4c2.3-13.4,1.4-20-2.3-20c-3.7,0-6.9,6.6-9.2,20c-2.3,13.5-1.5,19.8,2.3,19.8
					C123.8,374.2,127,367.9,129.3,354.4z"/>
				<path d="M149.4,373.6l-0.7,4h-13.4l0.7-4l5.7-1.9h2.5L149.4,373.6z M156.9,306.3l0.6,0.9l-2.6,13.7l-6.3,36.3
					c-1.2,6.8-2.3,13.6-3.4,20.4h-6.5c1.3-6.8,2.5-13.6,3.7-20.4l7.2-41.8l-3.6-1l0.7-3.8L156.9,306.3z"/>
				<path d="M165.2,373.6l-0.7,4h-12.8l0.7-4l5.6-1.9h2.5L165.2,373.6z M155,377.6c0.9-4.4,2.7-14.4,3.7-20.4l0.8-4.6
					c0.9-5.4,1.4-8.4,2-12.3l-3.6-0.9l0.6-3.6l10.4-6.2l0.7,1l-2.5,13.6l-2.2,12.9c-1,6-2.7,16.1-3.4,20.4H155z M165.3,313.6
					c0.7-4.1,2.9-7,5.1-7c2.2,0,3.4,2.8,2.7,7c-0.7,4.1-2.9,7-5.1,7C165.8,320.6,164.6,317.7,165.3,313.6z"/>
				<path d="M181.7,372c2.6,0,4.8-2.8,7.7-8.1l0.2,2.1c-3.8,8.5-7.3,12.9-11.6,12.9c-6.1,0-8.8-9.3-6.2-24.3
					c2.7-15.3,9.5-25.1,15.6-25.1c3.7,0,5.5,3.5,6.6,11.6l-0.9,2.2c-1.6-5-3.1-7-5.1-7c-3.5,0-7.3,5.7-9.5,18.1
					C176.4,366.3,178,372,181.7,372z M195.6,373.6l-0.7,4l-9.2,1l1-9.3l5.3-30.4l0.4-1.2l3.9-22.4l-3.9-1l0.7-3.8l10.2-4.4l0.6,0.9
					l-2.6,13.7l-9.8,56.7l-1.1-6L195.6,373.6z"/>
				<path d="M211.7,351.3c2.4-1.3,6.2-3.1,8.8-4.1l-0.7,3.8c-2.6,1-5.8,2.7-7.5,3.9c-3.9,2.6-5.6,6.1-6.2,9.8
					c-0.9,5,0.3,7.2,2.4,7.2c1.4,0,2.5-1,5.5-4.3l1.9-2.2l0.3,1.7l-2.5,3.6c-3.7,5.4-5.9,8.3-9.4,8.3c-3.9,0-6.1-4.3-4.7-12.3
					C200.8,360.4,203.4,355.8,211.7,351.3z M213.5,369.1l4-23.3c1.6-9.1,0.8-11.5-2.5-11.5c-1.2,0-2.7,0.3-5,1.6l3.4-3.4l-2.2,7.5
					c-1.1,4.7-2.7,6.8-4.4,6.8c-1.6,0-2.4-1.6-2.2-4.4c2-7.8,6.8-12.8,13.2-12.8c6,0,7.7,4.9,5.5,17.6l-3.7,21.2
					c-0.5,3.1-0.2,4.4,0.8,4.4c0.7,0,1.3-0.7,2.2-2.1l0.9,1.9c-2,4.5-3.9,6.2-6.4,6.2C213.9,378.8,212.7,375.1,213.5,369.1z"/>
				<path d="M219.8,394.4c1-3.5,3-5.2,4.8-5.2c1.4,0,2.6,0.8,3.4,4.1l1,3.7l-2.3,1.9l-1.2-1.9c3.5-3,6.6-9,9-15.7l4.2-11.6
					l14.1-38.7h3.1l-18.2,48.3c-5.6,14.9-9.4,21.9-14,21.9C221,401.3,219.2,398.3,219.8,394.4z M234.8,336.3l-4.6-1.5l0.7-3.8h13.5
					l-0.7,3.9l-5.7,1.5H234.8z M234.8,383.2l-2.4-52.2h6.9l0.8,38.7L234.8,383.2z M251.8,336.3l-4.6-1.5l0.7-3.8h9.9l-0.7,3.8
					l-4.3,1.5H251.8z"/>
				<path d="M252.4,374.9l1.9-11.3h3.5l-0.8,12.3l-2.4-2.1l0.6-3.7c1.6,2.6,3.2,4,5.7,4c3.5,0,5.6-2.4,6.4-6.6
					c0.6-3.6-0.3-5.7-3.2-7.7l-2.3-1.6c-3.5-2.4-5.1-6.8-3.9-13.8c1.4-8,6.1-14.7,12.4-14.7c2.9,0,5,1.4,7,4l-2.1,10.3h-3.4
					l0.6-10.9l2,1.9l-0.5,3.1c-1.3-2.3-2.6-3.4-4.7-3.4c-2.8,0-4.7,2.3-5.4,6.1c-0.6,3.5,0.1,5.3,3.3,7.5l1.8,1.2
					c4.5,3.2,5.6,8,4.5,14.6c-1.5,8.8-6.5,15-13.5,15C256.9,378.9,254.5,377.6,252.4,374.9z"/>
			</g>
		</g>
		<g>
			<g>
				<path class="st1" d="M79.6,367.5l6.9,1.5l-0.8,4.6H70.3l0.8-4.6l7.2-1.5H79.6z M80.7,339.2c1.7-10,3.5-20.1,5.1-30.2h7
					c-1.9,9.8-3.6,19.9-5.4,30.2l-0.5,3c-2,11.3-3.7,21.4-5.3,31.4h-7c1.9-9.8,3.6-19.9,5.4-30.2L80.7,339.2z M80.7,313.6l0.8-4.6
					h15.4l-0.8,4.6l-7.4,1.5h-1.3L80.7,313.6z M83.4,343l0.9-5.1H105l-0.9,5.1H83.4z M100.5,367.5l6.8,1.5l-0.8,4.6H91.1l0.8-4.6
					l7.3-1.5H100.5z M101.4,339.2c1.7-10,3.5-20.1,5.1-30.2h7c-1.9,9.8-3.6,19.9-5.4,30.2l-0.7,4.2c-1.7,10-3.5,20.1-5.1,30.2h-7
					c1.9-9.8,3.6-19.9,5.6-31.4L101.4,339.2z M101.5,313.6l0.8-4.6h15.4l-0.8,4.6l-7.3,1.5h-1.2L101.5,313.6z"/>
				<path class="st1" d="M114.5,350.3c2.7-15.5,10.1-24.7,16.8-24.7c6.6,0,10.9,9,8.2,24.7c-2.7,15.7-9.8,24.7-16.8,24.7
					C115.7,374.9,111.8,365.8,114.5,350.3z M132.7,350.4c2.3-13.4,1.4-20-2.3-20c-3.7,0-6.9,6.6-9.2,20c-2.3,13.5-1.5,19.8,2.3,19.8
					C127.2,370.2,130.4,363.9,132.7,350.4z"/>
				<path class="st1" d="M152.8,369.6l-0.7,4h-13.4l0.7-4l5.7-1.9h2.5L152.8,369.6z M160.3,302.3l0.6,0.9l-2.6,13.7l-6.3,36.3
					c-1.2,6.8-2.3,13.6-3.4,20.4h-6.5c1.3-6.8,2.5-13.6,3.7-20.4l7.2-41.8l-3.6-1l0.7-3.8L160.3,302.3z"/>
				<path class="st1" d="M168.6,369.6l-0.7,4h-12.8l0.7-4l5.6-1.9h2.5L168.6,369.6z M158.4,373.6c0.9-4.4,2.7-14.4,3.7-20.4l0.8-4.6
					c0.9-5.4,1.4-8.4,2-12.3l-3.6-0.9l0.6-3.6l10.4-6.2l0.7,1l-2.5,13.6l-2.2,12.9c-1,6-2.7,16.1-3.4,20.4H158.4z M168.7,309.6
					c0.7-4.1,2.9-7,5.1-7c2.2,0,3.4,2.8,2.7,7c-0.7,4.1-2.9,7-5.1,7C169.3,316.6,168,313.7,168.7,309.6z"/>
				<path class="st1" d="M185.1,368c2.6,0,4.8-2.8,7.7-8.1l0.2,2.1c-3.8,8.5-7.3,12.9-11.6,12.9c-6.1,0-8.8-9.3-6.2-24.3
					c2.7-15.3,9.5-25.1,15.6-25.1c3.7,0,5.5,3.5,6.6,11.6l-0.9,2.2c-1.6-5-3.1-7-5.1-7c-3.5,0-7.3,5.7-9.5,18.1
					C179.8,362.3,181.4,368,185.1,368z M199,369.6l-0.7,4l-9.2,1l1-9.3l5.3-30.4l0.4-1.2l3.9-22.4l-3.9-1l0.7-3.8l10.2-4.4l0.6,0.9
					l-2.6,13.7l-9.8,56.7l-1.1-6L199,369.6z"/>
				<path class="st1" d="M215.1,347.3c2.4-1.3,6.2-3.1,8.8-4.1l-0.7,3.8c-2.6,1-5.8,2.7-7.5,3.9c-3.9,2.6-5.6,6.1-6.2,9.8
					c-0.9,5,0.3,7.2,2.4,7.2c1.4,0,2.5-1,5.5-4.3l1.9-2.2l0.3,1.7l-2.5,3.6c-3.7,5.4-5.9,8.3-9.4,8.3c-3.9,0-6.1-4.3-4.7-12.3
					C204.2,356.4,206.8,351.8,215.1,347.3z M216.9,365.1l4-23.3c1.6-9.1,0.8-11.5-2.5-11.5c-1.2,0-2.7,0.3-5,1.6l3.4-3.4l-2.2,7.5
					c-1.1,4.7-2.7,6.8-4.4,6.8c-1.6,0-2.4-1.6-2.2-4.4c2-7.8,6.8-12.8,13.2-12.8c6,0,7.7,4.9,5.5,17.6l-3.7,21.2
					c-0.5,3.1-0.2,4.4,0.8,4.4c0.7,0,1.3-0.7,2.2-2.1l0.9,1.9c-2,4.5-3.9,6.2-6.4,6.2C217.3,374.8,216.1,371.1,216.9,365.1z"/>
				<path class="st1" d="M223.3,390.4c1-3.5,3-5.2,4.8-5.2c1.4,0,2.6,0.8,3.4,4.1l1,3.7l-2.3,1.9l-1.2-1.9c3.5-3,6.6-9,9-15.7
					l4.2-11.6l14.1-38.7h3.1l-18.2,48.3c-5.6,14.9-9.4,21.9-14,21.9C224.4,397.3,222.7,394.3,223.3,390.4z M238.2,332.3l-4.6-1.5
					l0.7-3.8h13.5l-0.7,3.9l-5.7,1.5H238.2z M238.3,379.2l-2.4-52.2h6.9l0.8,38.7L238.3,379.2z M255.2,332.3l-4.6-1.5l0.7-3.8h9.9
					l-0.7,3.8l-4.3,1.5H255.2z"/>
				<path class="st1" d="M255.8,370.9l1.9-11.3h3.5l-0.8,12.3l-2.4-2.1l0.6-3.7c1.6,2.6,3.2,4,5.7,4c3.5,0,5.6-2.4,6.4-6.6
					c0.6-3.6-0.3-5.7-3.2-7.7l-2.3-1.6c-3.5-2.4-5.1-6.8-3.9-13.8c1.4-8,6.1-14.7,12.4-14.7c2.9,0,5,1.4,7,4l-2.1,10.3h-3.4
					l0.6-10.9l2,1.9l-0.5,3.1c-1.3-2.3-2.6-3.4-4.7-3.4c-2.8,0-4.7,2.3-5.4,6.1c-0.6,3.5,0.1,5.3,3.3,7.5l1.8,1.2
					c4.5,3.2,5.6,8,4.5,14.6c-1.5,8.8-6.5,15-13.5,15C260.3,374.9,257.9,373.6,255.8,370.9z"/>
			</g>
		</g>
	</g>
</g>
</svg>
