<?xml version="1.0" encoding="UTF-8"?>
<svg xmlns="http://www.w3.org/2000/svg" viewBox="0 0 512 512">
  <defs>
    <style>
      .cls-1 {
        fill: #fff;
      }
    </style>
  </defs>
  <g id="Background">
    <rect class="cls-1" width="512" height="512"/>
  </g>
  <g id="Vector">
    <path d="M128.99,168.92c-6.78-.83-13.84-3.95-20.99-4.65-8.66-.85-17.11,2.02-23.47,7.96-11.32,10.59-16.27,27.1-17.89,42.04-2.97,27.23,5.48,62.52,27.15,80.8,13.29,11.21,30.72,16.84,47.87,12.18,15.51-4.22,8.92-28.34-6.65-24.11-10.41,2.83-22.03-2.36-29.6-11.88-7.95-9.99-11.86-23.76-13.55-36.05s-1.11-26.19,4.77-37.34c2.59-4.91,4.86-9.1,9.81-8.75,6.76.49,15.15,3.89,22.56,4.79,6.71.82,12.5-6.33,12.5-12.5,0-7.44-5.77-11.68-12.5-12.5h0Z"/>
    <path d="M159.18,168.84c2.35,43.12,4.69,86.23,7.04,129.35.37,6.74,5.48,12.5,12.5,12.5,6.6,0,12.72-5.72,12.5-12.5-.63-19.67-1.01-39.38.47-59.03,1.13-15,2.2-33.36,11.5-45.87,3.72-5.01,7.64-7.18,11.59-5.71s6.8,6.24,7.03,11.31-2.08,10.72-5.46,13.27c-4.52,3.4-8.49,2.98-13.15-.59-3.21,7.62-6.42,15.23-9.63,22.85,3.5.65,3.64.45,6.54,2.76-1.43-1.14,1.16,1.27,1.41,1.52,1.53,1.59,1.45,1.53,2.33,2.78,3.54,4.97,6.17,10.54,8.86,15.99,7.11,14.41,15.48,28.1,25.09,40.98,4.03,5.4,10.81,8.16,17.1,4.48,5.33-3.12,8.54-11.66,4.48-17.1-10.49-14.07-19.08-29.04-26.93-44.71-6.76-13.5-16.28-27.83-32.25-30.81-6.11-1.14-12.3,1.17-14.75,7.24s.02,11.71,5.11,15.61c15.77,12.08,38.37,5.39,49.04-9.95s9.58-38.22-3.97-51.34c-14.84-14.37-37.3-11.75-50.15,3.72s-15.83,34.75-17.91,53.78c-2.49,22.85-2.1,45.88-1.36,68.81h25c-2.35-43.12-4.69-86.23-7.04-129.35-.37-6.74-5.48-12.5-12.5-12.5-6.48,0-12.87,5.73-12.5,12.5h0Z"/>
    <path d="M330.81,186.77c-4.87-4.07-7.61-10.3-12.77-14.78-6.52-5.66-15.21-8.89-23.74-6.13-15.16,4.9-23.75,23.44-25.77,38.05-2.14,15.46,1.29,33.15,14.6,42.81,5.98,4.34,13.09,5.45,19.99,7.56,3.97,1.22,6.85,3.77,7.69,7.9.46,2.27-1.51,7.11-3.68,8.01-3.64,1.52-6.61.35-8.49-3.12-7.67-14.15-29.27-1.54-21.59,12.62,7.13,13.14,24.02,19.64,38.01,14.08,15.25-6.05,24.04-22.97,19.68-38.95-2.17-7.93-7.27-14.76-13.93-19.49-6.01-4.27-13.06-5.43-19.95-7.5-9.8-2.94-9.3-18.26-5.9-27.49.95-2.58,2.45-5.45,4.15-7.74.25-.34,3.08-3.08,3.03-3.24.14.42-1.43.45-1.43.52,0,.02-.29-.03-.33-.12.05.11,1.32,1.16,1.64,1.49,1.13,1.17,1.43,1.64,2.28,2.79,2.72,3.67,5.29,7.46,8.82,10.4,5.18,4.32,12.6,5.08,17.68,0,4.45-4.45,5.21-13.33,0-17.68h0Z"/>
    <path d="M405.82,192.07c-5.31-18.59-29.54-33.16-46.33-18.45-13.04,11.43-15.17,34.57-7.02,49.2,4.37,7.84,12.24,11.44,18.15,17.01.64.6,1.24,1.24,1.8,1.91-.66-.8-.56-.59.29.63.22.38,1.55,3.51.89,1.68.17.46,1.23,5,.94,3.01.25,1.74.16,3.52.11,5.27-.14,1.55-.15,1.76-.03.64-.16.88-.35,1.74-.58,2.61-.15.57-1.67,4.51-1.07,3.26-1.58,3.28-2.35,4.31-4.49,6.25s-3.62,2.38-5.5,2.82c1.03.3.78.25-.75-.14.81.51.56.39-.77-.38,1.6,1.03-.05-.31-.59-1.58-2.65-6.21-11.79-7.59-17.1-4.48-6.42,3.76-7.15,10.87-4.48,17.1,3.72,8.7,13.19,13.82,22.33,14.41,9.21.59,18.02-3.88,24.55-10.07,11.68-11.07,16.51-29.36,11.75-44.74-2.65-8.57-7.97-15.02-15.09-20.28-2.78-2.05-5.68-3.52-7.79-6.02-.87-1.04-2.02-3.72-2.28-5.69-.35-2.58.03-5.52.75-8.12.55-2.02.65-2.42,1.34-3.73.44-.84.92-1.64,1.47-2.41-.02.26-.14.44-.35.55-.76.21,2.06,1.23,2.96,1.88,1.01.73,2.32,2.8,2.8,4.5,4.41,15.44,28.54,8.88,24.11-6.65h0Z"/>
    <path d="M398.4,155.89c9.07,1.12,18.06.51,26.94-1.64l-5.65-7.34c-2.84,4.84-10.26,12.8-5.03,18.11,1.22,1.24,3.18,1.81,4.86,1.29,5.55-1.72,9.5.65,8.7,7.09s-5.09,10.24-11.34,9.74-6.38,9.5,0,10c12.36.98,21.42-9.53,21.46-21.41.04-12.13-10.57-18.44-21.48-15.06l4.86,1.29-.59-.6,1.29,4.86c.85-3.35,4.15-7.28,5.89-10.26,2.26-3.85-1.47-8.36-5.65-7.34-8.04,1.95-16.08,2.3-24.28,1.28-6.37-.79-6.31,9.22,0,10h0Z"/>
    <g>
      <path d="M119.03,344.63c18.27,1.22,36.55,2.44,54.82,3.67,6.42.43,6.4-9.57,0-10-18.27-1.22-36.55-2.44-54.82-3.67-6.42-.43-6.4,9.57,0,10h0Z"/>
      <path d="M143.75,355.41c-5.58-3.63-11.15-7.25-16.73-10.88l-7.53-4.9-4.18-2.72-1.67-1.09c-1.93-1.37-2.21-1.48-.82-.34l.5,3.85c-.11.36,5.02-2.51,5.52-2.82,2.21-1.37,4.42-2.75,6.63-4.12,4.42-2.75,8.83-5.49,13.25-8.24,5.45-3.39.44-12.05-5.05-8.63-6.63,4.12-13.25,8.24-19.88,12.36-4.09,2.55-12.16,5.79-9.86,12.05.8,2.2,2.81,3.3,4.66,4.53,3.32,2.21,6.69,4.35,10.04,6.53l20.08,13.06c5.41,3.52,10.43-5.13,5.05-8.63h0Z"/>
    </g>
    <path d="M192.56,356.9c3.48-9.8,5.47-19.97,7.38-30.16h-7.23c2.15,5.24,4,10.56,5.56,16,1.07,3.72,6.03,3.4,7.23,0,2.53-7.16,5.18-14.17,9.47-20.49l-6.85-.9c1.42,10.51,1.81,21.11,1.34,31.7-.22,4.83,7.28,4.81,7.5,0,.51-11.3-.09-22.49-1.6-33.69-.47-3.5-5.26-3.24-6.85-.9-4.64,6.84-7.48,14.54-10.22,22.29h7.23c-1.57-5.44-3.42-10.76-5.56-16-1.23-3.02-6.47-4.07-7.23,0-1.91,10.2-3.91,20.36-7.38,30.16-1.62,4.56,5.63,6.52,7.23,1.99h0Z"/>
    <path d="M240.26,350.59c-4.26-.69-7.98-3.61-8-8.24,0-1.79.59-3.73,1.66-5.17.87-1.17,2.51-3.09,3.85-1.61,1.17,1.3-.34,1.8-1.59.99-4.07-2.63-7.83,3.86-3.79,6.48,5.16,3.33,12.76.72,13.56-5.74.87-6.98-6.04-11.55-12.3-9.12-6.17,2.39-9.47,9.62-8.77,15.92.78,7.04,6.47,12.6,13.38,13.72,4.72.77,6.75-6.46,1.99-7.23h0Z"/>
    <path d="M259.34,321.85c.66,11.42,1.32,22.83,1.99,34.25.28,4.8,7.78,4.83,7.5,0-.66-11.42-1.32-22.83-1.99-34.25-.28-4.8-7.78-4.83-7.5,0h0Z"/>
    <path d="M255.86,340.19c5.49-1.82,10.98-3.63,16.47-5.45l-1.99-7.23c-5.49,1.82-10.98,3.63-16.47,5.45-4.56,1.51-2.61,8.75,1.99,7.23,5.49-1.82,10.98-3.63,16.47-5.45,4.56-1.51,2.61-8.75-1.99-7.23-5.49,1.82-10.98,3.63-16.47,5.45-4.56,1.51-2.61,8.75,1.99,7.23Z"/>
    <path d="M277.72,332.29c.96,7.93,4.99,15.01,6.58,22.77.89,4.35,7.1,3.02,7.37-1,.22-3.33-.11-6.67.06-10,.21-4.19,2.57-6.37,6.93-6.8,4.76-.48,4.81-7.98,0-7.5-5.37.54-11.6,3.05-13.57,8.55-1.77,4.95-.57,10.62-.91,15.75l7.37-1c-1.45-7.05-5.44-13.6-6.31-20.78-.58-4.73-8.08-4.79-7.5,0h0Z"/>
    <path d="M318.11,331.81c-10.37,4.54-11.18,24.6,2.81,23.64,6.27-.43,11.24-5.43,10.96-11.82-.31-7.1-5.6-15.84-13.72-11.66-4.29,2.21-.5,8.69,3.79,6.48,1.99-1.03,2.7,6.37,2.07,7.53-.87,1.59-3.53,2.57-5.21,1.77-3.57-1.69.73-8.43,3.09-9.46,4.41-1.93.6-8.4-3.79-6.48h0Z"/>
    <g>
      <path d="M405.31,338.44c-17.66-1.18-35.31-2.36-52.97-3.54-6.42-.43-6.4,9.57,0,10,17.66,1.18,35.31,2.36,52.97,3.54,6.42.43,6.4-9.57,0-10h0Z"/>
      <path d="M381.34,328.34c5.39,3.5,10.78,7.01,16.16,10.51,2.42,1.58,4.85,3.15,7.27,4.73l4.04,2.63,1.62,1.05c1.89,1.34,2.13,1.43.73.27l-.5-3.85c.18-.57-4.79,2.33-5.26,2.62-2.13,1.33-4.27,2.65-6.4,3.98-4.27,2.65-8.54,5.31-12.8,7.96-5.45,3.39-.44,12.05,5.05,8.63,6.4-3.98,12.8-7.96,19.21-11.95,4.05-2.52,11.87-5.69,9.6-11.85-.79-2.16-2.75-3.24-4.57-4.45-3.21-2.14-6.47-4.21-9.7-6.31-6.47-4.21-12.93-8.41-19.4-12.62-5.41-3.52-10.43,5.13-5.05,8.63h0Z"/>
    </g>
  </g>
</svg>