<?xml version="1.0" encoding="UTF-8"?>
<svg id="Camada_1" xmlns="http://www.w3.org/2000/svg" version="1.1" xmlns:serif="http://www.serif.com/" viewBox="0 0 509.9 86.1">
  <!-- Generator: Adobe Illustrator 30.6.0, SVG Export Plug-In . SVG Version: 2.1.4 Build 109)  -->
  <defs>
    <style>
      .st0 {
        font-family: ClashDisplay-Bold, 'Clash Display';
        font-size: 79.7px;
        font-weight: 700;
        isolation: isolate;
      }

      .st1 {
        fill-rule: evenodd;
      }
    </style>
  </defs>
  <g id="translink_full_black">
    <text class="st0" transform="translate(0 66.9)"><tspan x="0" y="0">TransLink</tspan></text>
    <g>
      <path class="st1" d="M477.3,41.2v8.5c0,8-3.1,14.1-7.4,18-6.8,6.2-17,7.6-25.8,2.9-8.2-4.3-13.2-14-13-31.3h0c0-2.6.3-5,.7-7.2,3.9-20.4,19.7-28.4,31.4-30.5,5.1-1,21.4-1.2,34.8,12.3l5.8,6.1-11.6,11.5-3.2-7.5c-8.2-8.3-21.2-9.3-24.3-8.7-7.7,1.4-19.6,8.6-20,23.9,0,7.1,1.6,12.1,4.5,15.2,2.6,2.7,6.3,3.5,8.9,1.7,1.8-1.2,2.8-3.6,2.8-6.6v-8.3h-4.5c-.5,0-1-.3-1.2-.8s-.1-1.1.3-1.4l12.6-13.1c.3-.3.6-.4,1-.4s.7.1,1,.4l12.6,13.1c.4.4.5.9.3,1.4s-.7.8-1.2.8h-4.5Z"/>
      <path class="st1" d="M469.2,0c22.4,0,40.6,18.2,40.6,40.6s-18.2,40.6-40.6,40.6-40.6-18.2-40.6-40.6S446.8,0,469.2,0ZM469.2,16.3c13.5,0,24.4,10.9,24.4,24.4s-10.9,24.4-24.4,24.4-24.4-10.9-24.4-24.4,10.9-24.4,24.4-24.4Z"/>
    </g>
  </g>
</svg>