<?xml version="1.0" encoding="UTF-8"?>
<svg id="Camada_1" data-name="Camada 1" xmlns="http://www.w3.org/2000/svg" viewBox="0 0 509.87 86.13">
  <defs>
    <style>
      .cls-1 {
        fill: #fff;
      }

      .cls-2 {
        isolation: isolate;
      }

      .cls-3 {
        fill: #4f46e5;
        fill-rule: evenodd;
      }
    </style>
  </defs>
  <g id="translink_colored_white" data-name="translink colored white">
    <g class="cls-2">
      <path class="cls-1" d="M20.08,66.93V27.01H1.2v-13.47h52.67v13.47h-18.81v39.92h-14.98Z"/>
      <path class="cls-1" d="M57.45,66.93V26.77h14.02v10.52h.8c1.12-6.61,5.26-11.31,13.23-11.31,8.84,0,12.35,5.82,12.35,13.86v7.97h-14.98v-4.7c0-3.35-1.27-4.54-5.18-4.54s-5.26,1.2-5.26,4.38v23.98h-14.98Z"/>
      <path class="cls-1" d="M99.84,56.73c0-5.66,3.9-9.72,12.99-10.6l16.33-1.59v-.8c0-4.06-1.75-4.7-7.09-4.7-4.94,0-6.45.96-6.45,4.3v.32h-14.98v-.16c0-10.68,8.92-17.53,22.55-17.53s20.8,6.85,20.8,18.09v22.87h-14.02v-8.45h-.8c-1.51,5.66-6.45,9.24-15.14,9.24s-14.18-4.14-14.18-11ZM118.48,57.29c7.25,0,10.2-.88,10.6-4.46l-12.27,1.43c-1.35.16-1.91.64-1.91,1.51,0,1.27,1.27,1.51,3.59,1.51Z"/>
      <path class="cls-1" d="M148.44,66.93V26.77h14.02v12.19h.8c.88-6.69,5.26-12.99,16.02-12.99s15.94,6.53,15.94,15.22v25.74h-14.98v-20.24c0-5.58-2.07-7.33-8.61-7.33s-8.21,1.67-8.21,6.85v20.72h-14.98Z"/>
      <path class="cls-1" d="M199.51,52.99v-.32h14.98v.8c0,2.23,1.43,2.47,6.85,2.47s5.98-.56,5.98-1.91c0-1.28-.64-1.59-4.38-1.99l-11.63-1.28c-8.29-.88-12.75-4.78-12.75-11.55s5.66-13.23,20.72-13.23c13.94,0,21.35,5.02,21.35,14.9v.32h-14.98v-.48c0-2.07-.8-3.03-6.85-3.03-4.86,0-5.5.64-5.5,2.15,0,1.12.64,1.67,5.34,2.15l7.97.88c11.71,1.27,15.46,5.18,15.46,11.95,0,7.49-7.49,12.91-20.8,12.91-14.18,0-21.75-5.5-21.75-14.74Z"/>
      <path class="cls-1" d="M245.65,66.93V13.54h14.98v39.92h30.84v13.47h-45.82Z"/>
      <path class="cls-1" d="M295.45,23.11v-9.56h14.98v9.56h-14.98ZM295.45,66.93V26.77h14.98v40.16h-14.98Z"/>
      <path class="cls-1" d="M315.21,66.93V26.77h14.02v12.19h.8c.88-6.69,5.26-12.99,16.02-12.99s15.94,6.53,15.94,15.22v25.74h-14.98v-20.24c0-5.58-2.07-7.33-8.61-7.33s-8.21,1.67-8.21,6.85v20.72h-14.98Z"/>
      <path class="cls-1" d="M366.44,66.93V13.54h14.98v27.17h7.09l8.84-13.94h17.69l-14.26,19.52,14.02,20.64h-17.69l-8.45-12.83h-7.25v12.83h-14.98Z"/>
    </g>
    <g>
      <path class="cls-3" d="M477.34,41.16l.04,8.46c-.06,8.05-3.16,14.07-7.49,18.03-6.79,6.21-16.97,7.58-25.77,2.93-8.22-4.35-13.18-13.96-12.97-31.28v-.04c.05-2.54.31-4.91.74-7.14,3.91-20.36,19.74-28.36,31.39-30.54,5.12-.96,21.38-1.19,34.83,12.31l5.79,6.07-11.55,11.51-3.16-7.49c-8.24-8.26-21.21-9.29-24.34-8.7-7.69,1.44-19.64,8.59-19.98,23.91-.08,7.07,1.61,12.13,4.53,15.17,2.64,2.74,6.31,3.48,8.89,1.73,1.81-1.23,2.76-3.55,2.79-6.59l-.04-8.34h-4.42c-.53,0-1.01-.32-1.21-.8s-.1-1.05.26-1.43l12.62-13.11c.25-.26.59-.4.95-.4s.7.15.95.4l12.62,13.11c.37.38.47.95.26,1.43s-.69.8-1.21.8h-4.51Z"/>
      <path class="cls-3" d="M469.23,0c22.43,0,40.64,18.21,40.64,40.64s-18.21,40.64-40.64,40.64-40.64-18.21-40.64-40.64S446.8,0,469.23,0ZM469.23,16.25c13.46,0,24.38,10.93,24.38,24.38s-10.93,24.38-24.38,24.38-24.38-10.92-24.38-24.38,10.93-24.38,24.38-24.38Z"/>
    </g>
  </g>
</svg>