<?xml version="1.0" encoding="UTF-8"?>
<svg id="Camada_1" data-name="Camada 1" xmlns="http://www.w3.org/2000/svg" viewBox="0 0 512 512">
  <defs>
    <style>
      .cls-1 {
        fill: #4f46e5;
        fill-rule: evenodd;
      }

      .cls-2 {
        font-family: ClashDisplay-Bold, 'Clash Display';
        font-size: 79.68px;
        font-weight: 700;
        isolation: isolate;
      }
    </style>
  </defs>
  <g id="translink_colored_black" data-name="translink colored black">
    <text class="cls-2" transform="translate(.83 281.96)"><tspan x="0" y="0">TransLink</tspan></text>
    <g>
      <path class="cls-1" d="M478.18,256.18l.04,8.46c-.06,8.05-3.16,14.07-7.49,18.03-6.79,6.21-16.97,7.58-25.77,2.93-8.22-4.35-13.18-13.96-12.97-31.28v-.04c.05-2.54.31-4.91.74-7.14,3.91-20.36,19.74-28.36,31.39-30.54,5.12-.96,21.38-1.19,34.83,12.31l5.79,6.07-11.55,11.51-3.16-7.49c-8.24-8.26-21.21-9.29-24.34-8.7-7.69,1.44-19.64,8.59-19.98,23.91-.08,7.07,1.61,12.13,4.53,15.17,2.64,2.74,6.31,3.48,8.89,1.73,1.81-1.23,2.76-3.55,2.79-6.59l-.04-8.34h-4.42c-.53,0-1.01-.32-1.21-.8s-.1-1.05.26-1.43l12.62-13.11c.25-.26.59-.4.95-.4s.7.15.95.4l12.62,13.11c.37.38.47.95.26,1.43s-.69.8-1.21.8h-4.51Z"/>
      <path class="cls-1" d="M470.06,215.02c22.43,0,40.64,18.21,40.64,40.64s-18.21,40.64-40.64,40.64-40.64-18.21-40.64-40.64,18.21-40.64,40.64-40.64ZM470.06,231.28c13.46,0,24.38,10.93,24.38,24.38s-10.93,24.38-24.38,24.38-24.38-10.92-24.38-24.38,10.93-24.38,24.38-24.38Z"/>
    </g>
  </g>
</svg>