<?xml version="1.0" encoding="UTF-8"?>
<svg id="text" xmlns="http://www.w3.org/2000/svg" viewBox="0 0 512 512">
  <defs>
    <style>
      .cls-1 {
        fill: #fff;
      }

      .cls-2 {
        fill: #288c58;
      }

      .cls-3 {
        fill: #fa1062;
      }

      .cls-4 {
        fill: #3f48cc;
      }
    </style>
  </defs>
  <g id="_G_x_white_G_" data-name="[G]^x (white G)">
    <path class="cls-3" d="M10.28,138.38h62.75v26h-29v183.12h29v26.12H10.28v-235.25Z"/>
    <path class="cls-1" d="M222.91,221.38c-2.92-12.58-10.04-21.38-21.38-26.38-6.33-2.75-13.38-4.12-21.12-4.12-14.83,0-27.02,5.59-36.56,16.78-9.54,11.19-14.31,28.01-14.31,50.46s5.17,38.63,15.5,48.03c10.33,9.4,22.08,14.1,35.25,14.1s23.5-3.71,31.75-11.12,13.33-17.12,15.25-29.13h-42.62v-30.75h76.75v98.88h-25.5l-3.88-23c-7.42,8.71-14.08,14.85-20,18.42-10.17,6.22-22.67,9.33-37.5,9.33-24.42,0-44.42-8.45-60-25.36-16.25-16.99-24.38-40.22-24.38-69.71s8.21-53.71,24.62-71.7c16.42-17.99,38.12-26.98,65.12-26.98,23.42,0,42.23,5.94,56.44,17.81,14.21,11.88,22.35,26.69,24.44,44.44h-37.87Z"/>
    <path class="cls-2" d="M284.53,347.5h29v-183.62h-29v-25.5h62.75v235.25h-62.75v-26.12Z"/>
    <path class="cls-4" d="M366.97,274.38l46.5-69-44.5-67h43.62l22.76,39.46,22.24-39.46h42.38l-44.75,66.38,46.5,69.62h-44.38l-23.45-40.96-23.68,40.96h-43.25Z"/>
  </g>
</svg>