<?xml version="1.0" encoding="utf-8"?>
<!-- Generator: Adobe Illustrator 27.9.0, SVG Export Plug-In . SVG Version: 6.00 Build 0)  -->
<svg version="1.1" id="Vector" xmlns="http://www.w3.org/2000/svg" xmlns:xlink="http://www.w3.org/1999/xlink" x="0px" y="0px"
	 viewBox="0 0 512 512" style="enable-background:new 0 0 512 512;" xml:space="preserve">
<style type="text/css">
	.st0{fill:#F5821F;}
	.st1{fill:#9E9E9E;}
	.st2{fill:#A6CE38;}
	.st3{fill:#ED1C24;}
	.st4{fill:#0282C6;}
	.st5{fill:#FFFFFF;stroke:#FFFFFF;stroke-width:2.5;stroke-miterlimit:10;}
</style>
<g id="G">
	<g>
		<path class="st0" d="M105.9,231.3c-9.5-7.9-20.9-13-32.6-16.5c-11.7-3.6-25.3-3.2-34.3,6.2c-4,4.2-7.2,9.6-10.5,14.4
			c-3.4,4.9-7.2,9.7-9.6,15.1c-5.2,11.7-3.8,25.5-3.7,38c0,6.2-0.6,12.8,0.6,18.9c1.2,6,5,10.4,9.9,13.7c9.5,6.4,22,10.2,33,13
			c11.2,2.8,24.8,6.3,35.9,1.9c10.8-4.3,21-11.8,24.6-23.2c3.7-11.6,5.4-28.9-1.6-39.6c-4.1-6.2-11.3-6.4-18.1-6.2
			c-7.5,0.3-15.1,1.4-22.4,3.3c1.6,5.8,3.2,11.6,4.8,17.4c12.5-4.2,26.3-1.8,37.8-9.4c9.6-6.4,0.6-22-9.1-15.5
			c-9.7,6.4-22.8,4-33.5,7.6c-10.9,3.7-6.5,20.2,4.8,17.4c4-1,8-1.9,12.1-2.3c2.4-0.2,4.9-0.4,7.4-0.4c0.7,0,2.2,0.3,2.8,0
			c1.3,0.2,1.3-0.1-0.2-0.7c-1.1-1.1-1.4-1.1-0.9,0c-0.3,1.1,0.9,3.8,1,5.1c0.2,2,0.1,4,0,6c-0.2,4-0.9,8.1-2,11.9
			c-1,3.4-2.7,5.3-5.7,7.2c-3.1,2-6.6,4.7-10.3,5.5c-7.5,1.4-17.1-1.7-24.3-3.6c-8.2-2.2-16.4-5-24-9c-1.9-1-3.9-1.7-4.5-3.8
			c-0.5-1.7-0.1-4.3-0.1-6.1c0-3,0-5.9,0-8.9c0-8.6-1.2-18.3,0.8-26.8c1.9-8.1,8.5-15.1,13.2-21.8c2.2-3.1,4.2-7.1,8-8.6
			c4-1.5,8.5-0.6,12.5,0.6c8.8,2.5,18.4,6.2,25.5,12.2c3.7,3.1,9.1,3.7,12.7,0C109.1,240.8,109.7,234.4,105.9,231.3L105.9,231.3z"/>
	</g>
</g>
<g id="R">
	<g>
		<path class="st0" d="M142.3,229.5c1.2,16.7-4.4,32.8-6.3,49.2c-1.9,16.4-1.1,33-0.3,49.4c0.5,10.6,14,11.6,17.7,2.4
			c4.2-10.4,7.4-21.2,9.6-32.3c2-10.7,3-22.1,7.6-32.1c7.6-16.4,24.1-26.1,41.3-29.4c4.8-0.9,7.5-6.6,6.3-11.1
			c-1.4-5-6.3-7.2-11.1-6.3c-20.6,4-40.5,16.3-50.8,35c-5.9,10.8-7.8,22.7-9.9,34.6c-2.2,12.6-5.6,24.8-10.3,36.7
			c5.9,0.8,11.8,1.6,17.7,2.4c-0.8-16.4-1.6-33,0.3-49.4c1.9-16.5,7.4-32.4,6.3-49.2C159.5,218,141.5,217.9,142.3,229.5L142.3,229.5
			z"/>
	</g>
</g>
<g id="E">
	<g>
		<path class="st0" d="M232.6,279.1c11.3,0.6,23,2.1,34.4,0.7c12.2-1.4,21.1-6.5,26.1-18.1c4.1-9.5,9.2-22.2,5-32.4
			c-4.2-10.4-16.3-12.8-26.4-12.6c-11.7,0.2-22.9,3.7-33.6,8.4c-10.6,4.6-16.8,12.1-22.3,22.1c-5.3,9.7-9.4,20.8-8.7,32
			c0.7,11.8,6.3,20.5,13.5,29.5c8.1,10.1,19.5,16.2,31.6,20.3c6.4,2.2,12.9,3.5,19.6,4.2c6.8,0.7,12.7,0.7,18-4
			c8.8-7.6-4-20.3-12.7-12.7c1-0.9,1.6-0.2,0.7-0.8c-0.7-0.4-2.4-0.1-3.3-0.2c-1.5-0.1-3.1-0.3-4.6-0.6c-4.4-0.7-8.7-1.8-12.8-3.2
			c-7-2.4-14.4-5.8-19.7-11.1c-4.9-4.9-10.3-11.3-11.8-18.2c-1.6-6.9,0.2-14.3,3-20.7c2.5-5.7,6-13.3,11-17.2
			c5.8-4.5,14.4-6.8,21.4-8.5c3.5-0.8,7.1-1.3,10.7-1.4c2.1,0,7.5-0.6,9.3,1.2c2.6,2.5-2,12.8-3.1,15.7c-1.3,3.2-2.4,7.1-5.7,8.7
			c-3.2,1.6-7.1,1.8-10.6,1.9c-9.6,0.4-19.4-0.6-29-1.1C221.1,260.4,221.1,278.4,232.6,279.1L232.6,279.1z"/>
	</g>
</g>
<g id="A">
	<g>
		<path class="st0" d="M359.5,263.7c-6.5-4.4-14.4-5.2-22.1-5.3c-7.4-0.1-15.1,0.7-21.4,4.9c-12.3,8.1-19.1,25.4-18.3,39.9
			c1,17,14.7,25.1,29.6,29c8,2.1,17.1,3.9,24.9,0.6c6.7-2.9,13.8-8.4,17.8-14.6c4.8-7.5,5.2-17.7,4.6-26.3c-0.6-9.9-3.1-19-7-28
			c-3.7-8.5-16.8-3.8-16.8,4.5c0.1,8.8,1.5,18.1,3.8,26.6c2.3,8.5,7.2,16.6,12.1,23.9c4.5,6.7,10,14,17.5,17.6
			c9.3,4.5,18.4,1.3,26.7-3.7c9.9-6,0.9-21.6-9.1-15.5c-4.4,2.7-7.8,5.1-12.1,1.4c-4.6-3.9-8-9.3-11-14.5c-3.1-5.3-6-10.4-7.4-16.4
			c-1.4-6.4-2.5-12.8-2.6-19.4c-5.6,1.5-11.2,3-16.8,4.5c2.7,6.2,4.2,13.1,4.6,19.9c0.2,5,0.8,12.1-2.3,16.4
			c-3.5,4.9-9.5,8-15.3,7.1c-5.9-0.9-12.4-2.5-17.7-5.4c-4.9-2.7-6.2-6.3-5.7-11.8c0.6-5.5,2.3-11.6,5.4-16.2
			c2.9-4.3,6.9-6.2,12-6.5c5.8-0.3,12.2-0.5,17.1,2.8C360,285.7,369.1,270.1,359.5,263.7L359.5,263.7z"/>
	</g>
</g>
<g id="T_x5F_1">
	<g>
		<path class="st0" d="M439.6,211.3c-11.5,15.8-14.9,35.6-15.6,54.8c-0.4,10.3-0.2,20.7-0.1,31c0,9.8,0.5,19.7,3.6,29.1
			c3,9.1,18.6,8.2,17.7-2.4c-0.1-1.1-0.2-2.2-0.3-3.4c-0.4-4.8-3.9-9-9-9c-4.6,0-9.4,4.1-9,9c0.1,1.1,0.2,2.2,0.3,3.4
			c5.9-0.8,11.8-1.6,17.7-2.4c-2.8-8.6-3-17.2-2.9-26.1c0-9.1-0.2-18.2,0.1-27.2c0.5-16.9,3.1-33.7,13.2-47.6
			c2.9-3.9,0.7-10-3.2-12.3C447.4,205.4,442.5,207.3,439.6,211.3L439.6,211.3z"/>
	</g>
</g>
<g id="T_x5F_2">
	<g>
		<path class="st0" d="M397.7,260.3c5.2-3.7,10.9-5.2,17.1-6.4c7.4-1.5,14.7-2.7,22.1-4.3c15.4-3.2,30.7-6.7,46-10.3
			c11.3-2.6,6.5-20-4.8-17.4c-15.9,3.7-31.9,7.4-47.9,10.7c-13.8,2.8-29.7,3.7-41.5,12.1c-3.9,2.8-5.8,7.8-3.2,12.3
			C387.6,261,393.7,263.2,397.7,260.3L397.7,260.3z"/>
	</g>
</g>
<g id="GREAT_subtitle">
	<g>
		<g>
			<path class="st1" d="M77.2,402c-2.3,1.2-4.7,2-7.5,2c-6.8,0-11.4-5.1-11.4-11.9c0-6.8,4.7-11.9,11.6-11.9c2.8,0,4.9,0.5,6.8,1.6
				l0.1,4.9h-2.1l-0.8-5l2.1,0.7v1.9c-1.8-1.7-3.7-2.4-5.9-2.4c-4.8,0-8.3,3.7-8.3,10.2c0,6.5,3.2,10.2,8.5,10.2
				c1.9,0,3.4-0.4,5.3-1.4l-1.5,1.6v-2c0-2.6,0-5.2-0.1-7.8h3.3c-0.1,2.5-0.1,5.2-0.1,7.8V402z M70.5,394.1v-1.4h8.8v1.4l-3.7,0.3
				H75L70.5,394.1z"/>
			<path class="st1" d="M81.8,382.1v-1.4h4.8v1.9h-0.3L81.8,382.1z M86.9,401.7l4.4,0.5v1.4h-9.5v-1.4l4.4-0.5H86.9z M85.1,391.3
				c0-3.5,0-7-0.1-10.5h3.3c-0.1,3.5-0.1,6.9-0.1,10.9v1c0,3.8,0,7.4,0.1,10.9H85c0.1-3.4,0.1-7,0.1-10.5V391.3z M86.6,391.5h4.2
				c3.7,0,5.4-2,5.4-4.7c0-2.9-1.5-4.4-5.1-4.4h-4.6v-1.6h4.7c5.2,0,8.3,2.2,8.3,6c0,2.9-2.3,5.5-6.7,5.9l0.1-0.3
				c2.4,0.2,3.9,1.4,4.9,4.4l1.7,5.6l-1.1-0.6l3.5,0.4v1.4c-0.6,0.2-1.4,0.3-2.4,0.3c-2.1,0-3-0.5-3.4-2.1l-1.4-5.5
				c-0.7-2.8-1.9-3.2-4.8-3.2h-3.2V391.5z"/>
			<path class="st1" d="M104.3,382.1v-1.4h4.8v1.9h-0.3L104.3,382.1z M109.1,401.7v1.9h-4.8v-1.4l4.4-0.5H109.1z M107.5,391.3
				c0-3.5,0-7-0.1-10.5h3.3c-0.1,3.4-0.1,7-0.1,10.5v1.3c0,3.9,0,7.4,0.1,10.9h-3.3c0.1-3.4,0.1-7,0.1-10.5V391.3z M118.5,380.8
				l1.5,1.7h-10.9v-1.7h12.1l0.2,6.1h-1.9L118.5,380.8z M116.8,392.7h-7.7v-1.6h7.7V392.7z M122.1,397.5l-0.2,6.1h-12.8v-1.7h11.6
				l-1.5,1.7l1.1-6.1H122.1z M115.7,391.5l0.5-3.6h1.5v8.1h-1.5l-0.5-3.8V391.5z"/>
			<path class="st1" d="M123.9,402.2l3.4-0.5h0.7l3.7,0.5v1.4h-7.8V402.2z M134,380.6h2l7.8,22.9h-3.2l-6.8-20.4h0.8l-6.9,20.4h-1.6
				L134,380.6z M130,394.5h9.2l0.5,1.6h-10.3L130,394.5z M136.7,402.2l4.3-0.5h0.7l4.2,0.5v1.4h-9.2V402.2z"/>
			<path class="st1" d="M148.8,382.5l1.5-1.7l-1.1,6.1h-1.9l0.3-6.1h18.6l0.3,6.1h-1.9l-1.1-6.1l1.5,1.7H148.8z M157.2,401.7
				l4.8,0.5v1.4h-10.2v-1.4l4.8-0.5H157.2z M155.4,391.3c0-3.5,0-7-0.1-10.5h3.3c-0.1,3.4-0.1,7-0.1,10.5v1.7c0,3.5,0,7,0.1,10.5
				h-3.3c0.1-3.4,0.1-7,0.1-10.5V391.3z"/>
			<path class="st1" d="M177.4,382.1v-1.4h4.8v1.9h-0.3L177.4,382.1z M182.5,401.7l4.4,0.5v1.4h-9.5v-1.4l4.4-0.5H182.5z
				 M180.7,391.3c0-3.5,0-7-0.1-10.5h3.3c-0.1,3.5-0.1,6.9-0.1,10.9v1c0,3.8,0,7.4,0.1,10.9h-3.3c0.1-3.4,0.1-7,0.1-10.5V391.3z
				 M182.2,391.5h4.2c3.7,0,5.4-2,5.4-4.7c0-2.9-1.5-4.4-5.1-4.4h-4.6v-1.6h4.7c5.2,0,8.3,2.2,8.3,6c0,2.9-2.3,5.5-6.7,5.9l0.1-0.3
				c2.4,0.2,3.9,1.4,4.9,4.4l1.7,5.6l-1.1-0.6l3.5,0.4v1.4c-0.6,0.2-1.4,0.3-2.4,0.3c-2.1,0-3-0.5-3.4-2.1l-1.4-5.5
				c-0.7-2.8-1.9-3.2-4.8-3.2h-3.2V391.5z"/>
			<path class="st1" d="M214,393.5c0,0.8-0.1,1.5-0.2,1.9h-12.5V394h8.1c1.6,0,2-0.8,2-1.7c0-1.9-1.6-3.7-3.8-3.7
				c-2.2,0-4.7,1.8-4.7,6.7c0,4.3,2.2,6.6,5.6,6.6c2.2,0,3.5-1,4.8-2.4l0.8,0.6c-1.2,2.4-3.4,3.9-6.5,3.9c-4.6,0-7.5-3.2-7.5-8.3
				c0-5.2,3.5-8.7,7.8-8.7C211.2,387,214,389.4,214,393.5z"/>
			<path class="st1" d="M225.3,402.1c1.7,0,2.9-0.7,4.5-2.8l0.3,0.9c-1.3,2.3-2.9,3.7-5.5,3.7c-4.1,0-6.9-3.4-6.9-8.4
				c0-5.2,3.1-8.6,7.2-8.6c1.9,0,3.6,0.8,5.4,3.4l-0.3,0.9c-2-1.9-3.3-2.4-4.6-2.4c-2.5,0-4.8,2-4.8,6.7
				C220.6,400.1,222.6,402.1,225.3,402.1z M234.8,402.4v1.2l-5.2,0.3l-0.3-3.5v-10l0.1-0.4v-8.6l-2.9-0.3v-1.2l5.2-1.5l0.5,0.3
				l-0.1,4.8v20.1l-0.5-1.7L234.8,402.4z"/>
			<path class="st1" d="M237.5,402.7l-0.1-3.7h1.8l0.9,4l-1.7-0.8v-1.2c1.2,0.9,2.5,1.4,4.2,1.4c2.6,0,3.8-1.1,3.8-2.6
				c0-1.5-1-2.2-3.2-3l-1.6-0.6c-2.5-0.9-4.1-2.2-4.1-4.6c0-2.4,2.1-4.7,5.8-4.7c1.8,0,3.3,0.5,4.7,1.4l-0.1,3.4h-1.7l-0.7-3.4
				l1.2,0.5v0.9c-1.1-0.9-2.2-1.3-3.5-1.3c-2.1,0-3.2,0.9-3.2,2.3c0,1.5,0.8,2.1,3.2,3l1,0.4c3.4,1.3,4.7,2.9,4.7,5
				c0,2.5-2.2,4.8-6.6,4.8C240.6,404,239.2,403.5,237.5,402.7z"/>
			<path class="st1" d="M258.6,402.3c0.7,0,1.4-0.3,2.3-1l0.8,0.9c-0.8,1.1-2.2,1.7-3.9,1.7c-2.3,0-3.8-1.2-3.8-3.8
				c0-0.8,0-1.5,0-2.9v-8.1h-2.9v-1.5l4.2-0.5l-1.4,1.1l1-5.5h2l-0.3,6v11C256.7,401.5,257.5,402.3,258.6,402.3z M261.4,387.4v1.8
				h-6.1v-1.8H261.4z"/>
			<path class="st1" d="M263.8,395.6c0-5.6,3.8-8.6,7.8-8.6c3.8,0,7.8,2.9,7.8,8.6s-3.9,8.4-7.8,8.4
				C267.6,404,263.8,401.2,263.8,395.6z M276.2,395.6c0-4.6-1.7-7-4.7-7c-3,0-4.7,2.5-4.7,7s1.7,6.9,4.7,6.9
				C274.5,402.5,276.2,400.1,276.2,395.6z"/>
			<path class="st1" d="M285.2,403.5c0.1-1.5,0.1-5,0.1-7.1v-1.6c0-1.9,0-2.9-0.1-4.3l-2.7-0.3V389l4.6-2l0.5,0.3l0.4,3.9v5.1
				c0,2.1,0,5.6,0.1,7.1H285.2z M290.5,402.4v1.2h-7.8v-1.2l3.7-0.7h0.7L290.5,402.4z M298.3,393.3v3.1c0,2.2,0,5.6,0.1,7.1h-2.9
				c0.1-1.5,0.1-5,0.1-7.1v-2.9c0-3.2-0.8-4.2-2.9-4.2c-1.7,0-3.1,0.7-5,2.3H287v-1.5h1.7l-1.5,0.6c1.6-2.1,4.3-3.8,6.7-3.8
				C297,387,298.3,388.8,298.3,393.3z M297.4,401.7l3.4,0.7v1.2H293v-1.2l3.7-0.7H297.4z"/>
			<path class="st1" d="M317.9,393.5c0,0.8-0.1,1.5-0.2,1.9h-12.5V394h8.1c1.6,0,2-0.8,2-1.7c0-1.9-1.6-3.7-3.8-3.7
				c-2.2,0-4.7,1.8-4.7,6.7c0,4.3,2.2,6.6,5.6,6.6c2.2,0,3.5-1,4.8-2.4l0.8,0.6c-1.2,2.4-3.4,3.9-6.5,3.9c-4.6,0-7.5-3.2-7.5-8.3
				c0-5.2,3.5-8.7,7.8-8.7C315.1,387,317.9,389.4,317.9,393.5z"/>
			<path class="st1" d="M329.9,382.1v-1.4h4.8v1.9h-0.3L329.9,382.1z M334.6,401.7v1.9h-4.8v-1.4l4.4-0.5H334.6z M333.1,391.3
				c0-3.5,0-7-0.1-10.5h3.3c-0.1,3.4-0.1,7-0.1,10.5v1.3c0,3.9,0,7.4,0.1,10.9H333c0.1-3.4,0.1-7,0.1-10.5V391.3z M344,380.8
				l1.5,1.7h-10.9v-1.7h12.1l0.2,6.1h-1.9L344,380.8z M342.3,392.7h-7.7v-1.6h7.7V392.7z M347.7,397.5l-0.2,6.1h-12.8v-1.7h11.6
				l-1.5,1.7l1.1-6.1H347.7z M341.2,391.5l0.5-3.6h1.5v8.1h-1.5l-0.5-3.8V391.5z"/>
			<path class="st1" d="M353.2,403.5c0.1-1.5,0.1-5,0.1-7.1v-1.6c0-1.9,0-2.9-0.1-4.3l-2.7-0.3V389l4.6-2l0.5,0.3l0.4,3.9v5.1
				c0,2.1,0,5.6,0.1,7.1H353.2z M358.5,402.4v1.2h-7.8v-1.2l3.7-0.7h0.7L358.5,402.4z M366.3,393.3v3.1c0,2.2,0,5.6,0.1,7.1h-2.9
				c0.1-1.5,0.1-5,0.1-7.1v-2.9c0-3.2-0.8-4.2-2.9-4.2c-1.7,0-3.1,0.7-5,2.3H355v-1.5h1.7l-1.5,0.6c1.6-2.1,4.3-3.8,6.7-3.8
				C365,387,366.3,388.8,366.3,393.3z M365.4,401.7l3.4,0.7v1.2H361v-1.2l3.7-0.7H365.4z"/>
			<path class="st1" d="M377.4,394.6c1.4-0.5,3.6-1.1,5.3-1.4v1.2c-1.5,0.3-3.5,1-4.6,1.4c-3.1,1.2-3.4,2.5-3.4,3.5
				c0,1.8,1.2,2.5,2.8,2.5c1.2,0,1.9-0.4,4-2l0.7-0.5l0.5,0.7l-1,1c-2,2-3.2,3-5.3,3c-2.5,0-4.6-1.4-4.6-4.2
				C371.8,397.8,372.8,396.3,377.4,394.6z M381.3,400.4v-7.8c0-3.3-1-4.1-3.2-4.1c-0.8,0-1.8,0.1-3.1,0.6l1.4-1.1l-0.9,2.9
				c-0.3,1-0.8,1.5-1.7,1.5c-0.9,0-1.5-0.5-1.5-1.4c0.6-2.6,3.2-4.2,6.6-4.2c3.5,0,5.2,1.6,5.2,5.9v7.2c0,1.5,0.5,2.1,1.3,2.1
				c0.6,0,1-0.3,1.3-0.7l0.7,0.7c-0.8,1.3-1.7,1.7-2.9,1.7C382.5,403.9,381.3,402.5,381.3,400.4z"/>
			<path class="st1" d="M389,402.4l3.7-0.7l-1.1,1.9c0.1-1.5,0.1-5,0.1-7.1v-15l-2.8-0.3v-1.2l5.1-1.5l0.5,0.3l-0.1,4.8v6.5l0.1,0.4
				v10.4l-0.3,3l-5-0.3V402.4z M403,395.6c0-4.4-1.8-6.8-4.4-6.8c-1.2,0-2.9,0.5-5.4,3l-0.3-0.6c2-3,4.2-4.3,6.5-4.3
				c3.6,0,6.5,3.1,6.5,8.3s-3,8.7-7,8.7c-2.1,0-4.2-0.9-6-4.5l0.3-0.5c1.8,2.2,3.6,3.1,5.2,3.1C400.9,402.1,403,400,403,395.6z"/>
			<path class="st1" d="M413.9,378.4l0.5,0.3l-0.1,4.8v12.9c0,2.4,0,4.8,0.1,7.1h-2.9c0.1-2.4,0.1-4.8,0.1-7.1v-15l-2.8-0.3v-1.2
				L413.9,378.4z M417.1,402.4v1.2h-8.4v-1.2l3.8-0.7h0.7L417.1,402.4z"/>
			<path class="st1" d="M434,393.5c0,0.8-0.1,1.5-0.2,1.9h-12.5V394h8.1c1.6,0,2-0.8,2-1.7c0-1.9-1.6-3.7-3.8-3.7
				c-2.2,0-4.7,1.8-4.7,6.7c0,4.3,2.2,6.6,5.6,6.6c2.2,0,3.5-1,4.8-2.4l0.8,0.6c-1.2,2.4-3.4,3.9-6.5,3.9c-4.6,0-7.5-3.2-7.5-8.3
				c0-5.2,3.5-8.7,7.8-8.7C431.2,387,434,389.4,434,393.5z"/>
			<path class="st1" d="M445.3,402.1c1.7,0,2.9-0.7,4.5-2.8l0.3,0.9c-1.3,2.3-2.9,3.7-5.5,3.7c-4.1,0-6.9-3.4-6.9-8.4
				c0-5.2,3.1-8.6,7.2-8.6c1.9,0,3.6,0.8,5.4,3.4l-0.3,0.9c-2-1.9-3.3-2.4-4.6-2.4c-2.5,0-4.8,2-4.8,6.7
				C440.5,400.1,442.6,402.1,445.3,402.1z M454.8,402.4v1.2l-5.2,0.3l-0.3-3.5v-10l0.1-0.4v-8.6l-2.9-0.3v-1.2l5.2-1.5l0.5,0.3
				l-0.1,4.8v20.1l-0.5-1.7L454.8,402.4z"/>
			<path class="st1" d="M57.7,447.2l3.4-0.5h0.7l3.7,0.5v1.4h-7.8V447.2z M67.9,425.6h2l7.8,22.9h-3.2l-6.8-20.4h0.8l-6.9,20.4H60
				L67.9,425.6z M63.9,439.5h9.2l0.5,1.6H63.3L63.9,439.5z M70.6,447.2l4.3-0.5h0.7l4.2,0.5v1.4h-9.2V447.2z"/>
			<path class="st1" d="M86.4,442.5c0,3,0.9,4.1,2.8,4.1c1.7,0,3.5-0.9,5.2-2.5h0.7v1.7h-1.7l1.2-0.5c-1.9,2.6-4.2,3.7-6.5,3.7
				c-2.7,0-4.4-1.6-4.4-6.1l0.1-9l0.7,0.6l-3.2-0.7v-1.2l4.9-0.4l0.3,0.3l-0.2,4.8V442.5z M94.5,448.8l-0.5-4l0.1-10.9l0.7,0.6
				l-3.2-0.7v-1.2l4.8-0.4l0.3,0.3l-0.1,4.8v10.2l-0.8-0.8l3.2,0.7v1.2L94.5,448.8z"/>
			<path class="st1" d="M108.5,447.3c0.7,0,1.4-0.3,2.3-1l0.8,0.9c-0.9,1.1-2.2,1.7-3.9,1.7c-2.3,0-3.8-1.2-3.8-3.8
				c0-0.8,0-1.5,0-2.9v-8.1H101v-1.5l4.2-0.5l-1.4,1.1l1-5.5h2l-0.3,6v11C106.6,446.5,107.3,447.3,108.5,447.3z M111.3,432.4v1.8
				h-6.1v-1.8H111.3z"/>
			<path class="st1" d="M113.7,440.6c0-5.6,3.8-8.6,7.8-8.6c3.8,0,7.8,2.9,7.8,8.6s-3.9,8.4-7.8,8.4
				C117.5,449,113.7,446.2,113.7,440.6z M126.1,440.6c0-4.6-1.7-7-4.7-7c-3,0-4.7,2.5-4.7,7s1.7,6.9,4.7,6.9
				C124.4,447.5,126.1,445.1,126.1,440.6z"/>
			<path class="st1" d="M135,448.5c0.1-1.5,0.1-5,0.1-7.1v-1.6c0-1.9,0-2.9-0.1-4.3l-2.7-0.3V434l4.6-2l0.5,0.3l0.4,3.9v5.1
				c0,2.1,0,5.6,0.1,7.1H135z M140.4,447.4v1.2h-7.8v-1.2l3.7-0.7h0.7L140.4,447.4z M148.1,438.3v3.1c0,2.2,0,5.6,0.1,7.1h-2.9
				c0.1-1.5,0.1-5,0.1-7.1v-2.9c0-3.2-0.8-4.2-2.9-4.2c-1.7,0-3,0.7-4.9,2.3h-0.7v-1.5h1.7l-1.5,0.6c1.6-2.1,4.2-3.8,6.6-3.8
				C146.7,432,148.1,433.8,148.1,438.3z M147.1,446.7l3.4,0.7v1.2h-7.8v-1.2l3.7-0.7H147.1z M158.3,437.9v3.5c0,2.2,0,5.6,0.1,7.1
				h-2.9c0.1-1.5,0.1-5,0.1-7.1v-2.9c0-3.2-0.9-4.1-2.9-4.1c-1.5,0-3,0.6-4.9,2.3H147v-1.2h1.8l-1.6,0.3c1.8-2.5,4.3-3.8,6.7-3.8
				C156.7,432,158.3,433.7,158.3,437.9z M157.3,446.7l3.4,0.7v1.2h-7.8v-1.2l3.7-0.7H157.3z"/>
			<path class="st1" d="M169.3,439.6c1.4-0.5,3.6-1.1,5.3-1.4v1.2c-1.5,0.3-3.5,1-4.6,1.4c-3.1,1.2-3.4,2.5-3.4,3.5
				c0,1.8,1.2,2.5,2.8,2.5c1.2,0,1.9-0.4,4-2l0.7-0.5l0.5,0.7l-1,1c-2,2-3.2,3-5.3,3c-2.5,0-4.6-1.4-4.6-4.2
				C163.7,442.8,164.8,441.3,169.3,439.6z M173.2,445.4v-7.8c0-3.3-1-4.1-3.2-4.1c-0.8,0-1.8,0.1-3.1,0.6l1.4-1.1l-0.9,2.9
				c-0.3,1-0.8,1.5-1.7,1.5s-1.5-0.5-1.5-1.4c0.6-2.6,3.2-4.2,6.6-4.2c3.5,0,5.2,1.6,5.2,5.9v7.2c0,1.5,0.5,2.1,1.3,2.1
				c0.6,0,1-0.3,1.3-0.7l0.7,0.7c-0.8,1.3-1.7,1.7-2.9,1.7C174.5,448.9,173.2,447.5,173.2,445.4z"/>
			<path class="st1" d="M187.6,447.3c0.7,0,1.4-0.3,2.3-1l0.8,0.9c-0.9,1.1-2.2,1.7-3.9,1.7c-2.3,0-3.8-1.2-3.8-3.8
				c0-0.8,0-1.5,0-2.9v-8.1h-2.9v-1.5l4.2-0.5l-1.4,1.1l1-5.5h2l-0.3,6v11C185.7,446.5,186.5,447.3,187.6,447.3z M190.4,432.4v1.8
				h-6.1v-1.8H190.4z"/>
			<path class="st1" d="M195,448.5c0.1-1.5,0.1-5,0.1-7.1v-1.6c0-1.9,0-2.9-0.1-4.3l-2.8-0.3V434l5.1-2l0.5,0.3l-0.1,4.6v4.5
				c0,2.1,0,5.6,0.1,7.1H195z M200.3,447.4v1.2h-7.8v-1.2l3.7-0.7h0.7L200.3,447.4z M194.2,426c0-1.3,1-2.1,2.2-2.1s2.2,0.8,2.2,2.1
				c0,1.3-1,2.1-2.2,2.1S194.2,427.3,194.2,426z"/>
			<path class="st1" d="M206,440.2c0,4.3,2.3,6.6,5.5,6.6c2,0,3.7-1,4.8-2.7l0.8,0.4c-0.9,2.8-3.1,4.4-6.3,4.4
				c-4.7,0-7.6-3.3-7.6-8.5c0-5.3,3.7-8.5,7.8-8.5c3,0,5.5,1.9,6,4.4c-0.2,0.8-0.7,1.3-1.5,1.3c-1.1,0-1.6-0.7-1.8-1.5l-0.9-3
				l1.6,1.3c-1.2-0.6-2.3-0.8-3.3-0.8C208.1,433.5,206,435.9,206,440.2z"/>
			<path class="st1" d="M229.2,427.5l1.5-1.7l-1.1,6.1h-1.9l0.3-6.1h18.6l0.3,6.1h-1.9l-1.1-6.1l1.5,1.7H229.2z M237.6,446.7
				l4.8,0.5v1.4h-10.2v-1.4l4.8-0.5H237.6z M235.8,436.3c0-3.5,0-7-0.1-10.5h3.3c-0.1,3.4-0.1,7-0.1,10.5v1.7c0,3.5,0,7,0.1,10.5
				h-3.3c0.1-3.4,0.1-7,0.1-10.5V436.3z"/>
			<path class="st1" d="M251.9,441.4v-1.6c0-1.9,0-2.9-0.1-4.3l-2.7-0.3V434l4.6-2l0.5,0.3l0.4,4.2v4.8c0,2.1,0,5.6,0.1,7.1h-2.9
				C251.9,447,251.9,443.5,251.9,441.4z M249.4,447.4l3.7-0.7h0.7l3.7,0.7v1.2h-8.2V447.4z M253.3,436.8h1.9l-0.8,0.2
				c1.1-3.2,3.2-5.1,5.2-5.1c1,0,2,0.5,2.4,1.2c0,1.6-0.6,2.5-2,2.5c-0.8,0-1.4-0.3-2-0.8L257,434l1.7-0.3c-2.1,1.1-3.3,2.8-4.1,5.4
				h-1.3V436.8z"/>
			<path class="st1" d="M269.8,439.6c1.4-0.5,3.6-1.1,5.3-1.4v1.2c-1.5,0.3-3.5,1-4.6,1.4c-3.1,1.2-3.4,2.5-3.4,3.5
				c0,1.8,1.2,2.5,2.8,2.5c1.2,0,1.9-0.4,4-2l0.7-0.5l0.5,0.7l-1,1c-2,2-3.2,3-5.3,3c-2.5,0-4.6-1.4-4.6-4.2
				C264.2,442.8,265.2,441.3,269.8,439.6z M273.7,445.4v-7.8c0-3.3-1-4.1-3.2-4.1c-0.8,0-1.8,0.1-3.1,0.6l1.4-1.1l-0.9,2.9
				c-0.3,1-0.8,1.5-1.7,1.5s-1.5-0.5-1.5-1.4c0.6-2.6,3.2-4.2,6.6-4.2c3.5,0,5.2,1.6,5.2,5.9v7.2c0,1.5,0.5,2.1,1.3,2.1
				c0.6,0,1-0.3,1.3-0.7l0.7,0.7c-0.8,1.3-1.7,1.7-2.9,1.7C274.9,448.9,273.7,447.5,273.7,445.4z"/>
			<path class="st1" d="M284.2,448.5c0.1-1.5,0.1-5,0.1-7.1v-1.6c0-1.9,0-2.9-0.1-4.3l-2.7-0.3V434l4.6-2l0.5,0.3l0.4,3.9v5.1
				c0,2.1,0,5.6,0.1,7.1H284.2z M289.5,447.4v1.2h-7.8v-1.2l3.7-0.7h0.7L289.5,447.4z M297.4,438.3v3.1c0,2.2,0,5.6,0.1,7.1h-2.9
				c0.1-1.5,0.1-5,0.1-7.1v-2.9c0-3.2-0.8-4.2-2.9-4.2c-1.7,0-3.1,0.7-5,2.3H286v-1.5h1.7l-1.5,0.6c1.6-2.1,4.3-3.8,6.7-3.8
				C296,432,297.4,433.8,297.4,438.3z M296.4,446.7l3.4,0.7v1.2H292v-1.2l3.7-0.7H296.4z"/>
			<path class="st1" d="M303,447.7l-0.1-3.7h1.8l0.9,4l-1.7-0.8v-1.2c1.2,0.9,2.5,1.4,4.2,1.4c2.6,0,3.8-1.1,3.8-2.6
				c0-1.5-1-2.2-3.2-3l-1.6-0.6c-2.5-0.9-4.1-2.2-4.1-4.6c0-2.4,2.1-4.7,5.8-4.7c1.8,0,3.3,0.5,4.7,1.4l-0.1,3.4h-1.7l-0.7-3.4
				l1.2,0.5v0.9c-1.1-0.9-2.2-1.3-3.5-1.3c-2.1,0-3.2,0.9-3.2,2.3c0,1.5,0.9,2.1,3.2,3l1,0.4c3.4,1.3,4.7,2.9,4.7,5
				c0,2.5-2.2,4.8-6.6,4.8C306.2,449,304.7,448.5,303,447.7z"/>
			<path class="st1" d="M320.2,448.5c0.1-1.5,0.1-5,0.1-7.1v-1.6c0-1.9,0-2.9-0.1-4.3l-2.8-0.3V434l5.1-2l0.5,0.3l-0.1,4.6v4.5
				c0,2.1,0,5.6,0.1,7.1H320.2z M325.4,447.4v1.2h-7.8v-1.2l3.7-0.7h0.7L325.4,447.4z M319.3,426c0-1.3,1-2.1,2.2-2.1
				c1.3,0,2.2,0.8,2.2,2.1c0,1.3-1,2.1-2.2,2.1C320.3,428.1,319.3,427.3,319.3,426z"/>
			<path class="st1" d="M334.7,447.3c0.7,0,1.4-0.3,2.3-1l0.8,0.9c-0.8,1.1-2.2,1.7-3.9,1.7c-2.3,0-3.8-1.2-3.8-3.8
				c0-0.8,0-1.5,0-2.9v-8.1h-2.9v-1.5l4.2-0.5l-1.4,1.1l1-5.5h2l-0.3,6v11C332.8,446.5,333.5,447.3,334.7,447.3z M337.5,432.4v1.8
				h-6.1v-1.8H337.5z"/>
			<path class="st1" d="M348.4,447.7l-0.1-3.7h1.8l0.9,4l-1.7-0.8v-1.2c1.2,0.9,2.5,1.4,4.2,1.4c2.6,0,3.8-1.1,3.8-2.6
				c0-1.5-1-2.2-3.2-3l-1.6-0.6c-2.5-0.9-4.1-2.2-4.1-4.6c0-2.4,2.1-4.7,5.8-4.7c1.8,0,3.3,0.5,4.7,1.4l-0.1,3.4h-1.7l-0.7-3.4
				l1.2,0.5v0.9c-1.1-0.9-2.2-1.3-3.5-1.3c-2.1,0-3.2,0.9-3.2,2.3c0,1.5,0.9,2.1,3.2,3l1,0.4c3.4,1.3,4.7,2.9,4.7,5
				c0,2.5-2.2,4.8-6.6,4.8C351.6,449,350.1,448.5,348.4,447.7z"/>
			<path class="st1" d="M361.8,454.8c0.2-1,1.2-1.4,2.2-1.4c0.9,0,1.6,0.3,2.5,1.3l1.1,1.1l-1.3,0.7l-0.9-0.7
				c2.3-1.1,3.6-3.5,4.5-5.8l1.1-3l5.2-14.4h1.8l-6.1,15.9c-2.3,6.1-4.2,8.7-7,8.7C363.2,457,361.8,456.1,361.8,454.8z M365.3,434.1
				l-3.3-0.5v-1.2h8.1v1.2l-4.1,0.5H365.3z M370.3,450.3l-7.1-17.9h3.2l5.3,14.5L370.3,450.3z M376.1,434.1l-3.6-0.5v-1.2h6.7v1.2
				l-2.4,0.5H376.1z"/>
			<path class="st1" d="M381.3,447.7l-0.1-3.7h1.8l0.9,4l-1.7-0.8v-1.2c1.2,0.9,2.5,1.4,4.2,1.4c2.6,0,3.8-1.1,3.8-2.6
				c0-1.5-1-2.2-3.2-3l-1.6-0.6c-2.5-0.9-4.1-2.2-4.1-4.6c0-2.4,2.1-4.7,5.8-4.7c1.8,0,3.3,0.5,4.7,1.4l-0.1,3.4h-1.7l-0.7-3.4
				l1.2,0.5v0.9c-1.1-0.9-2.2-1.3-3.5-1.3c-2.1,0-3.2,0.9-3.2,2.3c0,1.5,0.9,2.1,3.2,3l1,0.4c3.4,1.3,4.7,2.9,4.7,5
				c0,2.5-2.2,4.8-6.6,4.8C384.5,449,383,448.5,381.3,447.7z"/>
			<path class="st1" d="M402.5,447.3c0.7,0,1.4-0.3,2.3-1l0.8,0.9c-0.8,1.1-2.2,1.7-3.9,1.7c-2.3,0-3.8-1.2-3.8-3.8
				c0-0.8,0-1.5,0-2.9v-8.1H395v-1.5l4.2-0.5l-1.4,1.1l1-5.5h2l-0.3,6v11C400.6,446.5,401.3,447.3,402.5,447.3z M405.3,432.4v1.8
				h-6.1v-1.8H405.3z"/>
			<path class="st1" d="M421.7,438.5c0,0.8-0.1,1.5-0.2,1.9h-12.5V439h8.1c1.6,0,2-0.8,2-1.7c0-1.9-1.6-3.7-3.8-3.7
				c-2.2,0-4.7,1.8-4.7,6.7c0,4.3,2.2,6.6,5.6,6.6c2.2,0,3.5-1,4.8-2.4l0.8,0.6c-1.2,2.4-3.4,3.9-6.5,3.9c-4.6,0-7.5-3.2-7.5-8.3
				c0-5.2,3.5-8.7,7.8-8.7C418.9,432,421.7,434.4,421.7,438.5z"/>
			<path class="st1" d="M427.7,448.5c0.1-1.5,0.1-5,0.1-7.1v-1.6c0-1.9,0-2.9-0.1-4.3l-2.7-0.3V434l4.6-2l0.5,0.3l0.4,3.9v5.1
				c0,2.1,0,5.6,0.1,7.1H427.7z M433,447.4v1.2h-7.8v-1.2l3.7-0.7h0.7L433,447.4z M440.7,438.3v3.1c0,2.2,0,5.6,0.1,7.1h-2.9
				c0.1-1.5,0.1-5,0.1-7.1v-2.9c0-3.2-0.8-4.2-2.9-4.2c-1.7,0-3,0.7-4.9,2.3h-0.7v-1.5h1.7l-1.5,0.6c1.6-2.1,4.2-3.8,6.6-3.8
				C439.3,432,440.7,433.8,440.7,438.3z M439.8,446.7l3.4,0.7v1.2h-7.8v-1.2l3.7-0.7H439.8z M450.9,437.9v3.5c0,2.2,0,5.6,0.1,7.1
				h-2.9c0.1-1.5,0.1-5,0.1-7.1v-2.9c0-3.2-0.9-4.1-2.9-4.1c-1.5,0-3,0.6-4.9,2.3h-0.8v-1.2h1.8l-1.6,0.3c1.8-2.5,4.3-3.8,6.7-3.8
				C449.3,432,450.9,433.7,450.9,437.9z M450,446.7l3.4,0.7v1.2h-7.8v-1.2l3.7-0.7H450z"/>
		</g>
	</g>
</g>
<g id="Rails_00000063592303149757344370000017996482575439949990_">
	<path id="Green_x5F_Rail_x5F_Icon" class="st2" d="M339,175.5l-41.5,17.1c-8.2,3.4-17.5-0.5-20.9-8.7l-17.1-41.5
		c-3.4-8.2,0.5-17.5,8.7-20.9l41.5-17.1c8.2-3.4,17.5,0.5,20.9,8.7l17.1,41.5C351,162.8,347.1,172.1,339,175.5z"/>
	<path id="Red_x5F_Rail_x5F_Icon_00000163041308664536171290000006734980348558442630_" class="st3" d="M482.8,160.3l-41.5,17.1
		c-8.2,3.4-17.5-0.5-20.9-8.7l-17.1-41.5c-3.4-8.2,0.5-17.5,8.7-20.9l41.5-17.1c8.2-3.4,17.5,0.5,20.9,8.7l17.1,41.5
		C494.9,147.6,491,157,482.8,160.3z"/>
	<path id="Blue_x5F_Rail_x5F_Icon" class="st4" d="M383.9,226l-41.5-17.3c-8.2-3.4-12-12.8-8.6-20.9l17.3-41.5
		c3.4-8.2,12.8-12,20.9-8.6l41.5,17.3c8.2,3.4,12,12.8,8.6,20.9l-17.3,41.5C401.4,225.6,392.1,229.4,383.9,226z"/>
	<path id="Rail_x5F_1" class="st5" d="M272.5,125.8L272.5,125.8c1.8-0.7,3.9,0.2,4.6,2.1l20.8,55.2c0.7,1.8-0.2,3.9-2.1,4.6l0,0
		c-1.8,0.7-3.9-0.2-4.6-2.1l-20.8-55.2C269.8,128.5,270.7,126.5,272.5,125.8z"/>
	<path id="Rail_x5F_2" class="st5" d="M310.5,109.1L310.5,109.1c1.8-0.7,3.9,0.2,4.6,2.1l20.8,55.2c0.7,1.8-0.2,3.9-2.1,4.6l0,0
		c-1.8,0.7-3.9-0.2-4.6-2.1l-20.8-55.2C307.8,111.8,308.7,109.8,310.5,109.1z"/>
	<path id="Rail_x5F_3" class="st5" d="M334,136.3L334,136.3c0.6,1.6-0.2,3.4-1.8,4l-56.1,21.1c-1.6,0.6-3.4-0.2-4-1.8l0,0
		c-0.6-1.6,0.2-3.4,1.8-4l56.1-21.1C331.7,133.9,333.4,134.7,334,136.3z"/>
	<path id="Rail_x5F_4" class="st5" d="M325.3,113L325.3,113c0.6,1.6-0.2,3.3-1.8,3.9L267.4,138c-1.6,0.6-3.3-0.2-3.9-1.8l0,0
		c-0.6-1.6,0.2-3.3,1.8-3.9l56.1-21.1C322.9,110.6,324.7,111.4,325.3,113z"/>
	<path id="Rail_x5F_5" class="st5" d="M342.5,158.9L342.5,158.9c0.6,1.6-0.2,3.3-1.8,3.9l-56.2,21.1c-1.6,0.6-3.3-0.2-3.9-1.8l0,0
		c-0.6-1.6,0.2-3.3,1.8-3.9l56.2-21.1C340.2,156.6,342,157.4,342.5,158.9z"/>
	<path id="Rail_x5F_6" class="st5" d="M416.3,109.3L416.3,109.3c1.8-0.7,3.9,0.2,4.6,2.1l20.8,55.2c0.7,1.8-0.2,3.9-2.1,4.6h0
		c-1.8,0.7-3.9-0.2-4.6-2.1l-20.8-55.2C413.5,112,414.4,110,416.3,109.3z"/>
	<path id="Rail_x5F_7" class="st5" d="M454.2,92.5L454.2,92.5c1.8-0.7,3.9,0.2,4.6,2.1l20.8,55.2c0.7,1.8-0.2,3.9-2.1,4.6l0,0
		c-1.8,0.7-3.9-0.2-4.6-2.1l-20.8-55.2C451.5,95.2,452.4,93.2,454.2,92.5z"/>
	<path id="Rail_x5F_8" class="st5" d="M477.8,119.7L477.8,119.7c0.6,1.6-0.2,3.4-1.8,4l-56.1,21.1c-1.6,0.6-3.4-0.2-4-1.8l0,0
		c-0.6-1.6,0.2-3.4,1.8-4l56.1-21.1C475.4,117.3,477.2,118.1,477.8,119.7z"/>
	<path id="Rail_x5F_9" class="st5" d="M469,96.5L469,96.5c0.6,1.6-0.2,3.3-1.8,3.9l-56.1,21.1c-1.6,0.6-3.3-0.2-3.9-1.8v0
		c-0.6-1.6,0.2-3.3,1.8-3.9l56.1-21.1C466.7,94.1,468.4,94.9,469,96.5z"/>
	<path id="Rail_x5F_10" class="st5" d="M486.3,142.4L486.3,142.4c0.6,1.6-0.2,3.3-1.8,3.9l-56.2,21.1c-1.6,0.6-3.3-0.2-3.9-1.8l0,0
		c-0.6-1.6,0.2-3.3,1.8-3.9l56.2-21.1C484,140,485.7,140.8,486.3,142.4z"/>
	<path id="Rail_x5F_11" class="st5" d="M373,142.4L373,142.4c1.8,0.8,2.6,2.9,1.8,4.7l-24.4,53.7c-0.8,1.8-2.9,2.6-4.7,1.8h0
		c-1.8-0.8-2.6-2.9-1.8-4.7l24.4-53.7C369.2,142.4,371.3,141.6,373,142.4z"/>
	<path id="Rail_x5F_12" class="st5" d="M411.7,157.4L411.7,157.4c1.8,0.8,2.6,2.9,1.8,4.7l-24.4,53.7c-0.8,1.8-2.9,2.6-4.7,1.8v0
		c-1.8-0.8-2.6-2.9-1.8-4.7l24.4-53.7C407.9,157.4,410,156.6,411.7,157.4z"/>
	<path id="Rail_x5F_13" class="st5" d="M409.1,193.3L409.1,193.3c-0.7,1.5-2.5,2.2-4.1,1.5l-54.6-24.8c-1.5-0.7-2.2-2.5-1.5-4.1l0,0
		c0.7-1.5,2.5-2.2,4.1-1.5l54.6,24.8C409.1,189.9,409.8,191.7,409.1,193.3z"/>
	<path id="Rail_x5F_14" class="st5" d="M419.4,170.6L419.4,170.6c-0.7,1.5-2.5,2.2-4,1.5l-54.6-24.8c-1.5-0.7-2.2-2.5-1.5-4l0,0
		c0.7-1.5,2.5-2.2,4-1.5l54.6,24.8C419.4,167.3,420.1,169.1,419.4,170.6z"/>
	<path id="Rail_x5F_15" class="st5" d="M399.1,215.3L399.1,215.3c-0.7,1.5-2.5,2.2-4,1.5L340.5,192c-1.5-0.7-2.2-2.5-1.5-4l0,0
		c0.7-1.5,2.5-2.2,4-1.5l54.7,24.8C399.2,212,399.8,213.8,399.1,215.3z"/>
</g>
</svg>
