<?xml version="1.0" encoding="utf-8"?>
<!-- Generator: Adobe Illustrator 27.9.0, SVG Export Plug-In . SVG Version: 6.00 Build 0)  -->
<svg version="1.1" id="Max" xmlns="http://www.w3.org/2000/svg" xmlns:xlink="http://www.w3.org/1999/xlink" x="0px" y="0px"
	 viewBox="0 0 512 512" style="enable-background:new 0 0 512 512;" xml:space="preserve">
<g id="Maximum">
	<path d="M0,381.5v-73.1h11.4l0.1,16.3h-0.9c1-4,2.6-7.2,4.7-9.8c2.2-2.6,4.7-4.5,7.6-5.8c2.9-1.3,5.9-2,9.1-2
		c5.3,0,9.6,1.6,12.9,4.9c3.3,3.3,5.4,7.6,6.4,12.9h-1.6c0.9-3.7,2.5-6.8,4.8-9.5c2.3-2.7,5.1-4.7,8.4-6.1c3.3-1.4,6.9-2.2,10.7-2.2
		c4.2,0,8.1,0.9,11.6,2.7c3.5,1.8,6.3,4.6,8.3,8.3c2.1,3.7,3.1,8.4,3.1,14v49.3H84.8v-48.9c0-5.3-1.5-9-4.4-11.3
		c-3-2.3-6.4-3.4-10.3-3.4c-3.3,0-6.1,0.7-8.5,2.1c-2.4,1.4-4.2,3.3-5.5,5.7c-1.3,2.4-1.9,5.1-1.9,8.2v47.7H42.4v-50.1
		c0-4.1-1.4-7.3-4.1-9.8c-2.7-2.5-6.1-3.7-10.3-3.7c-2.8,0-5.5,0.7-8,2c-2.5,1.3-4.5,3.3-6,5.9c-1.5,2.6-2.3,5.9-2.3,9.7v46H0z"/>
	<path d="M125.1,383.2c-4.6,0-8.8-0.9-12.6-2.6c-3.8-1.7-6.8-4.3-9-7.6c-2.2-3.4-3.3-7.4-3.3-12.2c0-4.2,0.8-7.6,2.5-10.2
		c1.7-2.6,3.9-4.7,6.6-6.2c2.8-1.5,5.8-2.6,9.2-3.4c3.4-0.7,6.7-1.3,10.1-1.8c4.4-0.6,7.9-1,10.7-1.3c2.7-0.3,4.8-0.8,6.1-1.6
		c1.3-0.7,2-2,2-3.8v-0.4c0-3-0.6-5.6-1.7-7.7c-1.1-2.1-2.8-3.7-5.1-4.9c-2.3-1.1-5.1-1.7-8.5-1.7c-3.5,0-6.5,0.5-9,1.6
		c-2.5,1.1-4.5,2.5-6,4.1c-1.5,1.6-2.7,3.3-3.5,5l-11.3-3.7c1.9-4.4,4.4-7.9,7.6-10.4c3.2-2.5,6.7-4.3,10.5-5.3
		c3.8-1,7.6-1.6,11.4-1.6c2.4,0,5.2,0.3,8.3,0.9c3.1,0.6,6.1,1.8,9,3.5c2.9,1.7,5.3,4.3,7.2,7.7c1.9,3.4,2.8,8,2.8,13.7v48.2h-11.6
		v-9.9h-0.8c-0.8,1.7-2.2,3.5-4,5.3c-1.8,1.8-4.2,3.3-7.1,4.5C132.8,382.6,129.2,383.2,125.1,383.2z M127.1,372.8
		c4.4,0,8-0.8,11-2.5c3-1.7,5.3-3.9,6.9-6.6c1.6-2.7,2.4-5.6,2.4-8.5v-10.1c-0.5,0.6-1.5,1.1-3.1,1.5c-1.6,0.5-3.5,0.9-5.5,1.2
		c-2.1,0.3-4.1,0.6-6,0.9c-1.9,0.2-3.5,0.4-4.6,0.6c-2.8,0.3-5.5,0.9-7.9,1.8c-2.5,0.8-4.4,2.1-5.9,3.7c-1.5,1.6-2.2,3.8-2.2,6.6
		c0,2.5,0.7,4.6,2,6.3c1.3,1.7,3.1,3,5.4,3.9C121.6,372.3,124.2,372.8,127.1,372.8z"/>
	<path d="M161.8,381.5l28.8-42l-0.1,9l-27.2-40.1H177l9.1,14.2c2.4,3.7,4.4,7.1,6.1,10.3c1.7,3.2,3.5,6.3,5.3,9.2h-6.1
		c1.9-3,3.6-6,5.1-9.2c1.5-3.2,3.5-6.6,5.9-10.3l9.3-14.2h13.5L197.8,349v-8.7l28.6,41.2h-13.7L202,365.1c-2.3-3.6-4.3-6.9-6-10
		c-1.7-3.1-3.4-6-5.2-8.9h6.2c-1.8,2.8-3.4,5.8-5,8.9c-1.5,3.1-3.5,6.4-5.8,10l-10.8,16.4H161.8z"/>
	<path d="M239.2,320.7c-1.6,0-3-0.6-4.1-1.8c-1.2-1.2-1.7-2.6-1.7-4.3c0-1.7,0.6-3.2,1.7-4.4c1.2-1.2,2.5-1.8,4.1-1.8
		c1.6,0,3,0.6,4.2,1.8c1.2,1.2,1.7,2.6,1.7,4.4c0,1.7-0.6,3.1-1.7,4.3C242.3,320.1,240.9,320.7,239.2,320.7z M233.4,381.5v-54h11.8
		v54H233.4z"/>
	<path d="M251.6,382.1v-73.1h11.4l0.1,16.3h-0.9c1-4,2.6-7.2,4.7-9.8c2.2-2.6,4.7-4.5,7.6-5.8c2.9-1.3,5.9-2,9-2
		c5.3,0,9.6,1.6,12.9,4.9c3.3,3.3,5.4,7.6,6.4,12.9h-1.6c0.9-3.7,2.5-6.8,4.8-9.5c2.3-2.7,5.1-4.7,8.4-6.1s6.9-2.2,10.7-2.2
		c4.2,0,8.1,0.9,11.6,2.7c3.5,1.8,6.3,4.6,8.3,8.3c2.1,3.7,3.1,8.4,3.1,14v49.3h-11.8v-48.9c0-5.3-1.5-9-4.4-11.3
		c-3-2.3-6.4-3.4-10.3-3.4c-3.3,0-6.1,0.7-8.5,2.1c-2.4,1.4-4.2,3.3-5.5,5.7c-1.3,2.4-1.9,5.1-1.9,8.2v47.7h-11.8V332
		c0-4.1-1.3-7.3-4.1-9.8c-2.7-2.5-6.1-3.7-10.3-3.7c-2.8,0-5.5,0.7-8,2c-2.5,1.3-4.5,3.3-6,5.9c-1.5,2.6-2.3,5.9-2.3,9.7v46H251.6z"
		/>
	<path d="M377.2,382.4c-4.9,0-9.2-1-13-3c-3.7-2-6.6-5.1-8.7-9.2c-2.1-4.1-3.1-9.2-3.1-15.4v-46.4h11.8v45.4c0,5.6,1.5,10,4.4,13.2
		c3,3.2,7,4.8,12.1,4.8c3.5,0,6.6-0.8,9.4-2.3c2.8-1.5,5-3.8,6.6-6.7c1.6-2.9,2.4-6.5,2.4-10.6v-43.8h11.8v73.1h-11.4v-17.7h1.6
		c-2.3,6.8-5.5,11.7-9.6,14.4C387.3,381,382.5,382.4,377.2,382.4z"/>
	<path d="M415.4,381.5v-73.1h11.4l0.1,16.3H426c1-4,2.6-7.2,4.7-9.8c2.2-2.6,4.7-4.5,7.6-5.8c2.9-1.3,5.9-2,9.1-2
		c5.3,0,9.6,1.6,12.9,4.9c3.3,3.3,5.4,7.6,6.4,12.9h-1.6c0.9-3.7,2.5-6.8,4.8-9.5c2.3-2.7,5.1-4.7,8.4-6.1c3.3-1.4,6.9-2.2,10.7-2.2
		c4.2,0,8.1,0.9,11.6,2.7c3.5,1.8,6.3,4.6,8.3,8.3c2.1,3.7,3.1,8.4,3.1,14v49.3h-11.8v-48.9c0-5.3-1.5-9-4.4-11.3
		c-3-2.3-6.4-3.4-10.3-3.4c-3.3,0-6.1,0.7-8.5,2.1c-2.4,1.4-4.2,3.3-5.5,5.7c-1.3,2.4-1.9,5.1-1.9,8.2v47.7h-11.8v-50.1
		c0-4.1-1.3-7.3-4.1-9.8c-2.7-2.5-6.1-3.7-10.3-3.7c-2.8,0-5.5,0.7-8,2c-2.5,1.3-4.5,3.3-6,5.9c-1.5,2.6-2.3,5.9-2.3,9.7v46H415.4z"
		/>
</g>
<g id="Quartz">
	<path d="M64,295.8c-12.3,0-23.3-3-32.9-8.9c-9.6-6-17.2-14.5-22.8-25.5C2.8,250.2,0,237.1,0,221.9c0-15.3,2.8-28.4,8.3-39.5
		c5.5-11.1,13.1-19.6,22.8-25.6c9.6-6,20.6-9,32.9-9c12.3,0,23.3,3,32.9,9c9.6,6,17.2,14.5,22.7,25.6c5.5,11.1,8.3,24.2,8.3,39.5
		c0,15.2-2.8,28.4-8.3,39.4c-5.5,11.1-13.1,19.6-22.7,25.5C87.3,292.8,76.3,295.8,64,295.8z M64,278.7c8.6,0,16.3-2.2,23.3-6.5
		c6.9-4.4,12.4-10.8,16.5-19.2c4.1-8.5,6.1-18.8,6.1-31.1c0-12.4-2-22.8-6.1-31.3c-4.1-8.5-9.6-14.9-16.5-19.2
		c-6.9-4.4-14.7-6.5-23.3-6.5c-8.6,0-16.4,2.2-23.4,6.6c-7,4.4-12.5,10.8-16.6,19.3c-4.1,8.5-6.1,18.9-6.1,31.2
		c0,12.3,2,22.6,6.1,31c4.1,8.4,9.6,14.9,16.6,19.2C47.6,276.5,55.4,278.7,64,278.7z M80.3,278.1l13-8.2l0,0l4.1,5.6l24,31.9h-19.1
		l-15.7-21.1l-4.1-5.4L80.3,278.1z"/>
	<path d="M166.7,296.3c-7.3,0-13.7-1.5-19.2-4.5c-5.5-3-9.8-7.5-12.9-13.6c-3.1-6.1-4.6-13.6-4.6-22.7v-68.7h17.4v67.2
		c0,8.3,2.2,14.8,6.6,19.5c4.4,4.7,10.3,7.1,17.9,7.1c5.2,0,9.8-1.1,13.9-3.4c4.1-2.3,7.3-5.6,9.7-9.9c2.4-4.4,3.6-9.6,3.6-15.7
		v-64.8h17.5V295h-16.8v-26.2h2.3c-3.4,10.1-8.1,17.2-14.3,21.4C181.7,294.3,174.6,296.3,166.7,296.3z"/>
	<path d="M256.8,297.6c-6.8,0-13-1.3-18.6-3.9c-5.6-2.6-10-6.3-13.3-11.3c-3.3-5-4.9-11-4.9-18.1c0-6.2,1.2-11.2,3.7-15.1
		c2.4-3.9,5.7-6.9,9.8-9.1c4.1-2.2,8.6-3.9,13.6-5c5-1.1,10-2,15-2.6c6.4-0.8,11.7-1.5,15.8-1.9c4.1-0.5,7.1-1.2,9-2.3
		c2-1.1,2.9-3,2.9-5.6v-0.6c0-4.5-0.8-8.3-2.5-11.5c-1.7-3.1-4.2-5.5-7.5-7.2c-3.4-1.7-7.5-2.5-12.6-2.5c-5.2,0-9.6,0.8-13.2,2.4
		c-3.7,1.6-6.7,3.6-8.9,6c-2.3,2.4-4,4.9-5.2,7.4l-16.7-5.5c2.8-6.6,6.5-11.7,11.2-15.4c4.7-3.7,9.9-6.3,15.6-7.9
		c5.7-1.5,11.3-2.3,16.8-2.3c3.6,0,7.7,0.4,12.3,1.3c4.6,0.9,9.1,2.6,13.3,5.2c4.3,2.6,7.8,6.4,10.6,11.5c2.8,5.1,4.2,11.8,4.2,20.3
		v71.3h-17.1v-14.7h-1.2c-1.2,2.5-3.2,5.1-5.9,7.8c-2.7,2.7-6.2,4.9-10.5,6.7C268.1,296.7,262.9,297.6,256.8,297.6z M259.8,282.2
		c6.4,0,11.9-1.3,16.3-3.8c4.4-2.5,7.8-5.8,10.2-9.8c2.3-4,3.5-8.2,3.5-12.6v-15c-0.7,0.8-2.3,1.6-4.6,2.3c-2.4,0.7-5.1,1.3-8.2,1.8
		c-3.1,0.5-6,1-8.9,1.3c-2.9,0.4-5.1,0.6-6.8,0.8c-4.2,0.5-8.1,1.4-11.7,2.7c-3.6,1.3-6.6,3.1-8.8,5.5c-2.2,2.4-3.3,5.7-3.3,9.8
		c0,3.7,1,6.9,2.9,9.4c1.9,2.5,4.6,4.4,7.9,5.7C251.6,281.6,255.5,282.2,259.8,282.2z"/>
	<path d="M422.4,186.9v14.9h-55.9v-14.9H422.4z M382.8,160.7h17.4v105.8c0,4.8,1,8.4,2.9,10.6c2,2.2,5.2,3.3,9.8,3.3
		c1.1,0,2.5-0.1,4.2-0.4c1.7-0.3,3.3-0.5,4.7-0.8l3.6,14.7c-1.8,0.6-3.9,1.1-6.1,1.5c-2.3,0.3-4.6,0.5-6.8,0.5
		c-9.3,0-16.6-2.5-21.9-7.4c-5.2-4.9-7.8-11.8-7.8-20.6V160.7z"/>
	<path d="M427,296.3v-13l63.4-81.6h-2.8H427v-14.9h85v14.9l-60.8,77.4v1.1H512v16.2H427z"/>
</g>
<path id="play" d="M48.3,185.7v72.2c0,6.2,7,9,10.5,4.2L90.2,219c2.1-2.8,1.7-7-0.8-9.3L58,180.6C54.1,177,48.3,180,48.3,185.7z"/>
<g>
	<path d="M352.1,201.8c-4.9,0-9.3,1-13.3,3.1c-3.9,2.1-7,4.9-9.2,8.5c-2.2,3.6-3.3,8.9-3.3,13.6v68.2h-16.6V188.3h16.1v15.9h1.1
		c1.9-5.2,5.3-9.4,10.2-12.6c4.9-3.2,10.4-4.8,16.6-4.8c1.2,0,2.7,0,4.4,0.1c1.7,0.1,3,0.1,4,0.2v14.6"/>
</g>
</svg>
