<svg width="146" height="96" viewBox="0 0 146 96" fill="none" xmlns="http://www.w3.org/2000/svg"><path fill-rule="evenodd" clip-rule="evenodd" d="M83.7827 12.6087C83.7827 10.6157 85.3984 9 87.3914 9C89.3844 9 91.0001 10.6157 91.0001 12.6087C91.0001 14.6017 89.3844 16.2174 87.3914 16.2174C85.3984 16.2174 83.7827 14.6017 83.7827 12.6087Z" fill="currentColor"/><path d="M32.6594 16.4528L41.9008 32.5134L50.8527 17.4646L54.8404 29.75L55.9553 28.8478L66.5686 10.2029" stroke="currentColor" stroke-width="5" stroke-linecap="round" stroke-linejoin="round"/><path fill-rule="evenodd" clip-rule="evenodd" d="M8 19.8261C8 17.8331 9.61567 16.2174 11.6087 16.2174C13.6017 16.2174 15.2174 17.8331 15.2174 19.8261C15.2174 21.8191 13.6017 23.4348 11.6087 23.4348C9.61567 23.4348 8 21.8191 8 19.8261Z" fill="currentColor"/><path d="M21.25 89.9906C27.4531 89.9906 33.0938 87.3656 36.6094 82.3656C37.0625 81.725 37.1875 81.0844 37.1875 80.4438C37.1875 78.3969 35.6406 77.2406 33.9844 77.2406C33.0312 77.2406 32.25 77.5063 31.4844 78.5219C29.4375 81.2094 26.2969 83.8344 21.25 83.8344C14.5938 83.8344 8.95312 79.0375 8.95312 70.725C8.95312 61.4438 15.4844 52.5375 22.0781 52.5375C25.5312 52.5375 27.5156 53.6313 28.8594 55.0375V55.4906C28.8594 56.8344 30.1406 58.0531 31.875 58.0531C33.6562 58.0531 35.0781 56.5688 35.0781 54.85V50.7563C35.0781 49.1469 33.8594 47.8031 32.125 47.8031C31.2344 47.8031 30.5938 48.1938 30.2031 48.5688C28.2812 47.4281 25.4062 46.3344 22.5312 46.3344C12.7344 46.3344 2.5625 57.9125 2.5625 70.725C2.5625 82.8813 11.0781 89.9906 21.25 89.9906ZM46.4015 89.9906C48.0578 89.9906 49.5421 88.6469 49.5421 86.85V75.2563C51.0734 75.0063 52.6046 74.8813 53.8234 74.8813C56.0578 74.8813 60.9953 75.6469 68.9328 88.3188C69.5734 89.35 70.5265 89.9906 71.7453 89.9906C73.6671 89.9906 74.8859 88.4438 74.8859 86.85C74.8859 86.3969 74.8234 85.8813 74.5578 85.3813C71.3546 78.975 66.9484 74.7563 63.9328 72.3813C68.9953 70.1469 73.4015 66.4281 73.4015 59.975C73.4015 51.3344 65.339 46.3344 51.0109 46.3344H48.3859C43.964 46.3344 43.2609 46.9125 43.2609 50.1781V86.85C43.2609 88.6469 44.6046 89.9906 46.4015 89.9906ZM49.5421 69.3813V52.475H50.8234C61.0578 52.475 67.0734 55.0375 67.0734 59.975C67.0734 66.1156 57.339 68.8656 49.5421 69.3813ZM93.0573 89.9906C101.37 89.9906 108.479 84.475 108.479 77.1156C108.479 70.85 103.807 66.8188 95.3541 64.3813C88.4479 62.3969 85.5104 60.5375 85.5104 57.5375C85.5104 54.3344 88.4479 52.225 94.276 52.225C99.0104 52.225 101.885 54.0844 102.214 56.3813C102.401 57.85 103.62 59.0688 105.151 59.0688C106.948 59.0688 108.292 57.6625 108.292 55.7406C108.292 50.1156 103.104 46.3344 94.276 46.3344C84.9948 46.3344 79.2916 51.1313 79.2916 57.9906C79.2916 65.2875 85.8854 68.4125 93.1823 70.4594C100.229 72.4438 102.339 74.8188 102.339 77.4438C102.339 81.0844 98.5573 83.975 93.1823 83.975C89.3385 83.975 84.9323 82.1781 83.526 78.2719C83.0104 76.8656 81.9166 75.8969 80.3229 75.8969C78.4635 75.8969 77.0573 77.3813 77.0573 79.1C77.0573 79.8031 77.3073 80.6469 77.7604 81.6C79.8073 85.9594 85.2448 89.9906 93.0573 89.9906ZM128.001 89.9906C136.314 89.9906 143.423 84.475 143.423 77.1156C143.423 70.85 138.751 66.8188 130.298 64.3813C123.392 62.3969 120.454 60.5375 120.454 57.5375C120.454 54.3344 123.392 52.225 129.22 52.225C133.954 52.225 136.829 54.0844 137.158 56.3813C137.345 57.85 138.564 59.0688 140.095 59.0688C141.892 59.0688 143.236 57.6625 143.236 55.7406C143.236 50.1156 138.048 46.3344 129.22 46.3344C119.939 46.3344 114.236 51.1313 114.236 57.9906C114.236 65.2875 120.829 68.4125 128.126 70.4594C135.173 72.4438 137.283 74.8188 137.283 77.4438C137.283 81.0844 133.501 83.975 128.126 83.975C124.283 83.975 119.876 82.1781 118.47 78.2719C117.954 76.8656 116.861 75.8969 115.267 75.8969C113.408 75.8969 112.001 77.3813 112.001 79.1C112.001 79.8031 112.251 80.6469 112.704 81.6C114.751 85.9594 120.189 89.9906 128.001 89.9906Z" fill="currentColor"/></svg>